<svg id="Layer_1" data-name="Layer 1" xmlns="http://www.w3.org/2000/svg" viewBox="0 0 1080 414"><defs><style>.cls-1{fill:#003e69;}.cls-2{fill:#f7901e;}</style></defs><path class="cls-1" d="M153.15,168.11V344H126.61V168.11Z"/><path class="cls-1" d="M285,341.38c0,5.24-.2,9.86-.52,13.85a97,97,0,0,1-1.42,10.52,46.88,46.88,0,0,1-10.72,21.54c-10,11.56-23.82,17.32-41.34,17.32q-22.22,0-36.57-12-14.82-12.37-17.09-34.13h25.74q1.48,8.2,4.91,12.64,8,10.36,23.23,10.36,28.14,0,28.14-34.39V331.59q-15.27,15.6-35.2,15.6-22.66,0-37.14-16.4-14.57-16.64-14.58-41.58,0-24.27,13.56-41.23,14.58-18,38.5-18,21,0,34.86,15.61V233.05H285Zm-24.61-52.57q0-16.15-8.66-25.81-8.74-9.9-22.43-9.9-14.6,0-23,10.79-7.61,9.67-7.63,25,0,15.13,7.63,24.79,8.32,10.6,23,10.59t23.23-10.7Q260.38,303.94,260.39,288.81Z"/><path class="cls-1" d="M310.33,233.05h25.75v10.24Q349.54,230,366.4,230q19.37,0,30.19,12.19,9.33,10.36,9.35,33.83v68H380.19V282.11c0-10.91-1.54-18.47-4.57-22.65s-8.36-6.36-16.17-6.36q-12.76,0-18.12,8.41t-5.25,29V344H310.33Z"/><path class="cls-1" d="M427.41,186.9a16.67,16.67,0,0,1,28.46-11.61A15.7,15.7,0,0,1,460.8,187a16.08,16.08,0,0,1-4.93,11.85,15.71,15.71,0,0,1-11.71,4.9,16.7,16.7,0,0,1-16.75-16.87Zm29.49,46.15V344H431.27V233.05Z"/><path class="cls-1" d="M513.49,257v87H487.84V257H476.89V233.05h10.95V192.38h25.65v40.67h19.92V257Z"/><path class="cls-1" d="M544.63,186.9a16.72,16.72,0,0,1,16.64-16.5,16.09,16.09,0,0,1,11.84,4.89A15.79,15.79,0,0,1,578,187a16.16,16.16,0,0,1-4.9,11.85,15.79,15.79,0,0,1-11.73,4.9,16.73,16.73,0,0,1-16.75-16.87Zm29.51,46.15V344H548.5V233.05Z"/><path class="cls-1" d="M594.36,287.73a55.11,55.11,0,0,1,17.21-40.89Q628.79,230,653.5,230t42.15,17q17.05,17,17.1,41.7,0,24.93-17.22,41.8T653,347.19q-24.94,0-41.81-17.09Q594.34,313.26,594.36,287.73Zm26.21.47c0,11.05,3,19.86,8.89,26.3s14.08,9.8,24,9.8,18-3.22,24-9.69,9-15.07,9-25.87-3-19.4-9-25.84-14.1-9.8-24-9.8-17.75,3.26-23.81,9.8S620.57,277.85,620.57,288.2Z"/><path class="cls-1" d="M813.8,247.08c-3.78-5.14-7.13-9.77-10.31-14.15a46,46,0,0,0-16.92-3q-16.89,0-30.32,13.32V233.05H730.5V344h25.75V290.52q0-20.68,5.25-29c3.56-5.61,9.62-8.41,18.12-8.41q11.73,0,16.17,6.36t4.54,22.65V344h25.76V276a89,89,0,0,0-1-13.65C821,256.83,817.16,251.63,813.8,247.08Z"/><path class="cls-2" d="M1078.37,20.32A32.71,32.71,0,0,0,1064.3,5,32.58,32.58,0,0,0,1043.91.81q-10.79,1.24-18.53,15c-1,1.67-3.43,6.84-7.43,15.52s-9.13,19.61-15.3,32.87-13.15,28.15-20.95,44.7-15.9,34-24.22,52.24-16.77,36.69-25.3,55.32q-12.52,27.38-23.82,51.93a50.9,50.9,0,0,1,10.24,5.94q23.17-34,49.54-72.32,26.67-38.82,49.55-72.73t39-57.59Q1072.78,48,1075.05,43.9C1080.24,34.76,1081.35,26.92,1078.37,20.32Z"/><path class="cls-2" d="M865.51,268.81q-7.31-29.2-11.92-47-4.68-18-7.75-28.5T841,177.92c-1.19-3.26-2.33-6-3.43-8.34q-3.93-8.24-11.58-10.76t-16.34,1.65c-5.8,2.76-9.66,6.68-11.55,11.69s-1.54,10.29,1.05,15.78c1.11,2.28,2.55,4.92,4.35,7.9s4.77,7.45,9,13.42,9.93,13.92,17.3,23.88,17.17,23,29.42,39.24A52,52,0,0,1,865.51,268.81Z"/><path class="cls-1" d="M314.11,402.23l-1.53,2.19h-2.13V369.93h4.27v11.68a5.43,5.43,0,0,1,2.28-1.53,8.72,8.72,0,0,1,3.33-.71,10.34,10.34,0,0,1,8,3.41,12.62,12.62,0,0,1,3.07,8.67c0,4-1,7.21-3.09,9.5a10.68,10.68,0,0,1-8.36,3.47,9.28,9.28,0,0,1-3.35-.65A6.93,6.93,0,0,1,314.11,402.23Zm.61-17.37v13.95c0,.23.53.63,1.6,1.16a6.05,6.05,0,0,0,2.44.85c2.92,0,5-.71,6.28-2.1s1.89-3.74,1.89-7a9,9,0,0,0-2.21-6.42,7.94,7.94,0,0,0-6-2.3,5.53,5.53,0,0,0-2.19.67A6.6,6.6,0,0,0,314.72,384.86Z"/><path class="cls-1" d="M346.15,408.06a7.36,7.36,0,0,1-3.49,3.84,11.71,11.71,0,0,1-6,1.54v-3.85a8.45,8.45,0,0,0,4.61-1.24,3.67,3.67,0,0,0,1.91-3.05,11.61,11.61,0,0,0-.69-3.92c-.5-1.3-1.07-2.87-1.81-4.76l-6.55-16.79h4.39l7.1,18.66L352,379.83h4.37Z"/><path class="cls-1" d="M377.27,404V383.44h-3.33v-3.61h7.59V404Zm2.34-33.27a2.51,2.51,0,0,1,1.87.78,2.62,2.62,0,0,1,0,3.75,2.63,2.63,0,0,1-4.5-1.87,2.5,2.5,0,0,1,.76-1.89A2.47,2.47,0,0,1,379.61,370.69Z"/><path class="cls-1" d="M404,404v-14c0-2.56-.38-4.37-1.14-5.39A4.55,4.55,0,0,0,399,383a6.25,6.25,0,0,0-3.09.88,7,7,0,0,0-2.45,2.17V404h-4.28V379.83h2.93l1.35,3.11c1.41-2.39,3.73-3.57,6.92-3.57,5.29,0,7.94,3.2,7.94,9.66V404Z"/><path class="cls-1" d="M430.47,403.94v-1.79c-1.49,1.49-3.67,2.25-6.51,2.25a9.24,9.24,0,0,1-7.35-3.26,12.78,12.78,0,0,1-2.82-8.64,14,14,0,0,1,3.24-9.3,9.87,9.87,0,0,1,7.75-3.83,8.27,8.27,0,0,1,5.69,1.76v-11.2h4.27v34Zm0-18.52A5.13,5.13,0,0,0,426,383a6.87,6.87,0,0,0-5.56,2.57,9.93,9.93,0,0,0-2.15,6.55c0,5.79,2.66,8.72,7.94,8.72a6.39,6.39,0,0,0,2.44-.66,3.7,3.7,0,0,0,1.8-1.35Z"/><path class="cls-1" d="M445.7,379.83v15.4c0,3.71,1.63,5.59,4.85,5.59a6.81,6.81,0,0,0,3.88-1.22,6,6,0,0,0,2.32-2.83V379.83H461V404h-4.28v-3.34a6.59,6.59,0,0,1-2.9,2.6,8.71,8.71,0,0,1-4.23,1.2,7.91,7.91,0,0,1-6.08-2.27,9.27,9.27,0,0,1-2.13-6.49V379.83Z"/><path class="cls-1" d="M485.86,381.77l-2.12,3a6.05,6.05,0,0,0-2.3-1.24,9.48,9.48,0,0,0-3.25-.59,6.88,6.88,0,0,0-5.56,2.46,10.11,10.11,0,0,0-2.05,6.69q0,4.25,2.11,6.47a7.61,7.61,0,0,0,5.81,2.22,9.58,9.58,0,0,0,5.8-2.24l1.72,3.61a15.53,15.53,0,0,1-8.54,2.23,10.87,10.87,0,0,1-8.17-3.32c-2.16-2.19-3.23-5.19-3.23-9a12.89,12.89,0,0,1,3.34-9.27,12.17,12.17,0,0,1,9.16-3.49,14,14,0,0,1,7.28,2.4Z"/><path class="cls-1" d="M492.82,383.2H490v-3.37h2.8v-5.06l4.3-1.63v6.69h6.61v3.37h-6.61v12a7.06,7.06,0,0,0,1,4.33,4,4,0,0,0,3.29,1.3,7.9,7.9,0,0,0,3.41-.85l.64,3.76a23.35,23.35,0,0,1-5.85.69,6.39,6.39,0,0,1-4.84-2.14,7.66,7.66,0,0,1-2-5.36Z"/><path class="cls-1" d="M512.45,404V383.44h-3.32v-3.61h7.59V404Zm2.37-33.27a2.55,2.55,0,0,1,1.87.78,2.69,2.69,0,0,1,0,3.75,2.63,2.63,0,0,1-1.87.77,2.6,2.6,0,0,1-1.88-.77,2.52,2.52,0,0,1-.78-1.87,2.55,2.55,0,0,1,.77-1.89A2.5,2.5,0,0,1,514.82,370.69Z"/><path class="cls-1" d="M533,404.42h-1.12l-10.34-24.67h4.67l6.39,16.92,6.5-16.92h4.49Z"/><path class="cls-1" d="M568.06,392.31H550.65a8.78,8.78,0,0,0,2.32,6.52,7.3,7.3,0,0,0,5.26,2,9,9,0,0,0,6.14-2.16l1.8,3.09a7.82,7.82,0,0,1-3,1.71,16.4,16.4,0,0,1-5.75,1,10.73,10.73,0,0,1-7.72-3.09,12.09,12.09,0,0,1-3.56-9.16,12.94,12.94,0,0,1,3.64-9.58,10.53,10.53,0,0,1,7.7-3.22,11.06,11.06,0,0,1,8.09,2.9,10,10,0,0,1,2.82,7.44A9.65,9.65,0,0,1,568.06,392.31ZM557.66,383a6.75,6.75,0,0,0-4.8,1.85,6.58,6.58,0,0,0-2.08,4.37h13.37a6.11,6.11,0,0,0-1.65-4.34A6.32,6.32,0,0,0,557.66,383Z"/><path class="cls-1" d="M602,401.19c-1.72,2.14-4.33,3.23-7.88,3.23a6.83,6.83,0,0,1-4.92-2.06,7,7,0,0,1-2.08-5.13,7.59,7.59,0,0,1,3.23-6.2,12.69,12.69,0,0,1,8.16-2.54,9.93,9.93,0,0,1,3.09.57c0-3.91-1.75-5.86-5.23-5.86a8.38,8.38,0,0,0-6.18,2.18l-1.81-3.61a10.53,10.53,0,0,1,3.38-1.69,13.12,13.12,0,0,1,4.11-.71c3.5,0,6,.8,7.64,2.4s2.36,4.12,2.36,7.58V398c0,2.12.64,3.53,1.91,4.25v2.14a8.22,8.22,0,0,1-3.93-.76A4.13,4.13,0,0,1,602,401.19Zm-.4-9.09a16.16,16.16,0,0,0-2.86-.44,8.15,8.15,0,0,0-5.29,1.66,5,5,0,0,0-2,4c0,2.48,1.46,3.76,4.42,3.76a7.24,7.24,0,0,0,5.76-3.11Z"/><path class="cls-1" d="M617.48,379.83v15.4c0,3.71,1.6,5.59,4.85,5.59a6.67,6.67,0,0,0,3.86-1.22,5.91,5.91,0,0,0,2.32-2.83V379.83h4.28V404h-4.28v-3.34a6.47,6.47,0,0,1-2.88,2.6,8.87,8.87,0,0,1-4.26,1.2,7.92,7.92,0,0,1-6.06-2.27,9.23,9.23,0,0,1-2.13-6.49V379.83Z"/><path class="cls-1" d="M640.94,383.2h-2.79v-3.37h2.79v-5.06l4.29-1.63v6.69h6.62v3.37h-6.62v12a7.19,7.19,0,0,0,1,4.33,4,4,0,0,0,3.3,1.3A7.76,7.76,0,0,0,653,400l.65,3.76a23.5,23.5,0,0,1-5.84.69,6.36,6.36,0,0,1-4.84-2.14,7.63,7.63,0,0,1-2-5.36Z"/><path class="cls-1" d="M656.93,391.85a13.25,13.25,0,0,1,3-9,11.14,11.14,0,0,1,16-.14q2.85,3.29,2.86,9.18c0,3.87-1,7-2.91,9.19a10,10,0,0,1-8,3.38,9.94,9.94,0,0,1-8-3.41C657.89,398.75,656.93,395.68,656.93,391.85Zm4.5,0c0,6,2.14,9.08,6.44,9.08a5.46,5.46,0,0,0,4.7-2.44,11.52,11.52,0,0,0,1.67-6.64c0-6-2.11-9-6.37-9a5.49,5.49,0,0,0-4.68,2.39A11,11,0,0,0,661.43,391.85Z"/><path class="cls-1" d="M712,404V388.68c0-3.82-1.63-5.7-4.93-5.7a5.11,5.11,0,0,0-2.92.95,5.2,5.2,0,0,0-1.84,2.18V404h-4.26V386.82A3.31,3.31,0,0,0,696.7,384a5.69,5.69,0,0,0-3.57-1,4.87,4.87,0,0,0-2.71,1,5.85,5.85,0,0,0-2.08,2.18V404h-4.28V379.83h2.82l1.41,2.79a7.42,7.42,0,0,1,6.18-3.25c3.46,0,5.87,1.07,7.26,3.22a5.52,5.52,0,0,1,2.7-2.3,9.34,9.34,0,0,1,4-.92,7.46,7.46,0,0,1,5.77,2.21,8.85,8.85,0,0,1,2.07,6.25V404Z"/><path class="cls-1" d="M736.82,401.19c-1.73,2.14-4.35,3.23-7.88,3.23a6.8,6.8,0,0,1-4.93-2.06,7,7,0,0,1-2.07-5.13,7.61,7.61,0,0,1,3.2-6.2,12.79,12.79,0,0,1,8.19-2.54,10,10,0,0,1,3.07.57c0-3.91-1.76-5.86-5.23-5.86a8.33,8.33,0,0,0-6.18,2.18l-1.8-3.61a10.41,10.41,0,0,1,3.36-1.69,13.42,13.42,0,0,1,4.12-.71c3.51,0,6,.8,7.63,2.4s2.37,4.12,2.37,7.58V398c0,2.12.65,3.53,1.9,4.25v2.14a8,8,0,0,1-3.9-.76A4,4,0,0,1,736.82,401.19Zm-.42-9.09a16,16,0,0,0-2.85-.44,8.08,8.08,0,0,0-5.28,1.66,5,5,0,0,0-2.07,4c0,2.48,1.49,3.76,4.45,3.76a7.28,7.28,0,0,0,5.75-3.11Z"/><path class="cls-1" d="M749.75,383.2h-2.81v-3.37h2.81v-5.06l4.27-1.63v6.69h6.64v3.37H754v12c0,2,.34,3.47,1,4.33a4,4,0,0,0,3.28,1.3,7.91,7.91,0,0,0,3.42-.85l.62,3.76a23,23,0,0,1-5.83.69,6.4,6.4,0,0,1-4.85-2.14,7.64,7.64,0,0,1-1.94-5.36Z"/><path class="cls-1" d="M769.36,404V383.44H766v-3.61h7.59V404Zm2.34-33.27a2.67,2.67,0,0,1,1.9,4.53,2.64,2.64,0,0,1-1.9.77,2.55,2.55,0,0,1-1.85-.77,2.51,2.51,0,0,1-.77-1.87,2.57,2.57,0,0,1,.75-1.89A2.52,2.52,0,0,1,771.7,370.69Z"/><path class="cls-1" d="M779.66,391.85a13.11,13.11,0,0,1,3-9,10,10,0,0,1,7.93-3.44,10.12,10.12,0,0,1,8,3.3q2.85,3.29,2.86,9.18c0,3.87-1,7-2.92,9.19a11.17,11.17,0,0,1-16,0C780.61,398.75,779.66,395.68,779.66,391.85Zm4.5,0c0,6,2.14,9.08,6.45,9.08a5.47,5.47,0,0,0,4.69-2.44,11.6,11.6,0,0,0,1.68-6.64q0-9-6.37-9a5.49,5.49,0,0,0-4.69,2.39A10.82,10.82,0,0,0,784.16,391.85Z"/><path class="cls-1" d="M821.64,404v-14c0-2.56-.38-4.37-1.16-5.39s-2.06-1.55-3.9-1.55a6.26,6.26,0,0,0-3.05.88,6.7,6.7,0,0,0-2.45,2.17V404h-4.29V379.83h2.93l1.36,3.11c1.41-2.39,3.72-3.57,6.92-3.57,5.28,0,7.93,3.2,7.93,9.66V404Z"/><path class="cls-2" d="M944.45,335.12A10.52,10.52,0,1,1,955,345.57,10.43,10.43,0,0,1,944.45,335.12Zm19.43,0A8.91,8.91,0,1,0,955,344,8.94,8.94,0,0,0,963.88,335.12ZM960,340.78H958l-3.44-5.28h-1.9v5.28h-1.63V329.33h5c2.06,0,4.07.56,4.07,3,0,2.26-1.57,3.09-3.61,3.15Zm-5.38-6.9c1.44,0,3.94.28,3.94-1.55,0-1.18-1.57-1.39-2.8-1.39h-3v2.94Z"/><path class="cls-2" d="M919.74,316.85A32.35,32.35,0,1,1,887.4,284.5,32.35,32.35,0,0,1,919.74,316.85Z"/></svg>