<svg id="Layer_1" data-name="Layer 1" xmlns="http://www.w3.org/2000/svg" viewBox="0 0 1080 1026"><defs><style>.cls-1{fill:#35495a;}.cls-2{fill:#fff;}.cls-3{fill:#8dc63e;}</style></defs><path class="cls-1" d="M198.26,219.12c0-17,12-37.79,26.76-46.25l288-165.53c14.72-8.46,38.8-8.46,53.52,0l288,165.53c14.71,8.46,26.76,29.27,26.76,46.25V550c0,17-12.05,37.78-26.76,46.24l-288,165.54c-14.72,8.45-38.8,8.45-53.52,0L225,596.21c-14.72-8.46-26.76-29.27-26.76-46.24Z"/><path class="cls-2" d="M336.05,502l26.54-10.62V325L336.05,314.4V284.31l108-1.77V314.4L417.46,325V491.38L444,502v30.08H336.05Z"/><path class="cls-2" d="M571.92,436.51c0,40.71,11.68,56.63,46.37,56.63C655.81,493.14,664,473,664,431.2V325L636.34,314.4V284.31l109-1.77V314.4L718.81,325V431.2c0,68.32-26.19,105.13-102.29,105.13-71.15,0-99.47-31.5-99.47-99.82V325L490.86,314.4V284.31l108.67-1.77V314.4L571.92,325Z"/><path class="cls-3" d="M644.1,916.48l61.22-20.88,5.22-1.78c33.7-11.5,66.94-49.48,73.86-84.41l1-5.13c6.92-34.93,12.6-63.51,12.61-63.51l-61.24,20.89-5.12,1.75c-33.7,11.49-66.95,49.47-73.88,84.4l-1,5.16C649.83,887.89,644.13,916.47,644.1,916.48Z"/><path class="cls-3" d="M618.63,978.74l56.52,31.45,4.25,2.37c31.12,17.31,81.53,16.46,112-1.9l4.54-2.73c30.51-18.36,55.48-33.38,55.5-33.37l-56.55-31.47-4.15-2.31c-31.11-17.31-81.54-16.47-112,1.88l-4.57,2.75C643.65,963.75,618.66,978.75,618.63,978.74Z"/><path class="cls-3" d="M783.86,873.91l46.6,22.5,3.5,1.69c25.66,12.38,65.88,9.36,89.39-6.72l3.5-2.4c23.52-16.08,42.76-29.23,42.77-29.22L923,837.25l-3.42-1.65c-25.66-12.38-65.89-9.36-89.4,6.71l-3.52,2.4C803.14,860.78,783.88,873.92,783.86,873.91Z"/><path class="cls-3" d="M854.56,802l43.25-28.42,3.25-2.14c23.8-15.65,41.87-51.71,40.16-80.14L941,687c-1.71-28.43-3.11-51.7-3.09-51.7l-43.26,28.43-3.18,2.09c-23.81,15.64-41.89,51.71-40.18,80.14l.25,4.26C853.21,778.68,854.58,802,854.56,802Z"/><path class="cls-3" d="M939.92,777.41l40.74,7.3,3.07.55c22.43,4,52.77-7,67.43-24.42l2.18-2.6C1068,740.79,1080,726.51,1080,726.52l-40.76-7.31-3-.53c-22.43-4-52.78,7-67.44,24.41l-2.19,2.61C952,763.14,939.94,777.41,939.92,777.41Z"/><path class="cls-3" d="M987.63,690.2l32.48-25.67,2.44-1.93c17.88-14.14,29.76-44.14,26.41-66.68l-.5-3.35c-3.35-22.54-6.09-41-6.08-41l-32.49,25.69-2.39,1.88c-17.87,14.13-29.76,44.14-26.42,66.68l.5,3.37C984.93,671.73,987.65,690.19,987.63,690.2Z"/><path class="cls-3" d="M435.9,916.48,374.68,895.6l-5.22-1.78c-33.7-11.5-66.94-49.48-73.86-84.41l-1-5.13c-6.92-34.93-12.6-63.51-12.61-63.51l61.24,20.89,5.12,1.75c33.7,11.49,66.95,49.47,73.88,84.4l1,5.16C430.17,887.89,435.87,916.47,435.9,916.48Z"/><path class="cls-3" d="M461.37,978.74l-56.52,31.45-4.25,2.37c-31.12,17.31-81.53,16.46-112-1.9l-4.54-2.73c-30.51-18.36-55.48-33.38-55.5-33.37l56.55-31.47,4.15-2.31c31.11-17.31,81.54-16.47,112,1.88l4.57,2.75C436.35,963.75,461.34,978.75,461.37,978.74Z"/><path class="cls-3" d="M296.14,873.91l-46.6,22.5L246,898.1c-25.66,12.38-65.88,9.36-89.39-6.72l-3.5-2.4c-23.52-16.08-42.76-29.23-42.77-29.22L157,837.25l3.42-1.65c25.66-12.38,65.89-9.36,89.4,6.71l3.52,2.4C276.86,860.78,296.12,873.92,296.14,873.91Z"/><path class="cls-3" d="M225.44,802l-43.25-28.42-3.25-2.14c-23.8-15.65-41.87-51.71-40.16-80.14L139,687c1.71-28.43,3.11-51.7,3.09-51.7l43.26,28.43,3.18,2.09c23.81,15.64,41.89,51.71,40.18,80.14l-.25,4.26C226.79,778.68,225.42,802,225.44,802Z"/><path class="cls-3" d="M140.08,777.41l-40.74,7.3-3.07.55c-22.43,4-52.77-7-67.43-24.42l-2.18-2.6C12,740.79,0,726.51,0,726.52l40.76-7.31,3-.53c22.43-4,52.78,7,67.44,24.41l2.19,2.61C128.05,763.14,140.06,777.41,140.08,777.41Z"/><path class="cls-3" d="M92.37,690.2,59.89,664.53l-2.44-1.93C39.57,648.46,27.69,618.46,31,595.92l.5-3.35c3.35-22.54,6.09-41,6.08-41l32.49,25.69,2.39,1.88c17.87,14.13,29.76,44.14,26.42,66.68l-.5,3.37C95.07,671.73,92.35,690.19,92.37,690.2Z"/><path class="cls-3" d="M591.4,889.57c0-5.18-3.67-11.52-8.15-14.09l-35.1-20.17c-4.48-2.58-11.82-2.58-16.3,0l-35.1,20.17c-4.48,2.57-8.15,8.91-8.15,14.09v40.27c0,5.17,3.67,11.51,8.15,14.09l35.1,20.17c4.48,2.58,11.82,2.58,16.3,0l35.1-20.17c4.48-2.58,8.15-8.92,8.15-14.09Z"/></svg>