<svg id="Layer_1" data-name="Layer 1" xmlns="http://www.w3.org/2000/svg" viewBox="0 0 1080 284"><defs><style>.cls-1{fill:#35495a;}.cls-2{fill:#fff;}.cls-3{fill:#8dc63e;}</style></defs><path class="cls-1" d="M52.16,64.38a15.55,15.55,0,0,1,7-12.17L135,8.67a15.63,15.63,0,0,1,14.07,0l75.77,43.54a15.55,15.55,0,0,1,7,12.17v87a15.53,15.53,0,0,1-7,12.16L149,207.13a15.69,15.69,0,0,1-14.07,0L59.2,163.58a15.53,15.53,0,0,1-7-12.16Z"/><path class="cls-2" d="M88.4,138.8l7-2.8V92.24l-7-2.8V81.53l28.4-.46v8.37l-7,2.8V136l7,2.8v7.91H88.4Z"/><path class="cls-2" d="M150.45,121.57c0,10.71,3.07,14.9,12.2,14.9,9.87,0,12-5.31,12-16.3V92.24l-7.26-2.8V81.53l28.68-.46v8.37l-7,2.8v27.93c0,18-6.89,27.66-26.91,27.66-18.71,0-26.16-8.29-26.16-26.26V92.24l-6.89-2.8V81.53l28.59-.46v8.37l-7.27,2.8Z"/><path class="cls-3" d="M169.44,247.83l16.1-5.49,1.38-.47c8.86-3,17.61-13,19.43-22.2l.27-1.35,3.31-16.71-16.11,5.49-1.34.46c-8.87,3-17.61,13-19.44,22.21l-.27,1.35C171,240.31,169.45,247.83,169.44,247.83Z"/><path class="cls-3" d="M162.74,264.21l14.87,8.27,1.12.63c8.18,4.55,21.44,4.33,29.47-.5l1.19-.72,14.6-8.78-14.87-8.28-1.09-.61c-8.19-4.55-21.45-4.33-29.48.5l-1.2.72Z"/><path class="cls-3" d="M206.21,236.63l12.25,5.92.93.45c6.74,3.25,17.33,2.46,23.51-1.77l.92-.63,11.25-7.69L242.81,227l-.9-.44c-6.75-3.25-17.33-2.46-23.52,1.77l-.93.63C211.28,233.18,206.21,236.64,206.21,236.63Z"/><path class="cls-3" d="M224.81,217.71l11.37-7.48.86-.56c6.26-4.12,11-13.6,10.56-21.08l-.07-1.12c-.45-7.48-.81-13.6-.81-13.6l-11.38,7.48-.84.55c-6.26,4.12-11,13.6-10.57,21.08l.07,1.12C224.45,211.58,224.81,217.7,224.81,217.71Z"/><path class="cls-3" d="M247.26,211.25,258,213.17l.8.14c5.9,1.06,13.89-1.83,17.74-6.42l.58-.69,7-8.34-10.72-1.92-.79-.14c-5.9-1.06-13.89,1.83-17.74,6.42l-.58.68Z"/><path class="cls-3" d="M259.81,188.31l8.54-6.76L269,181c4.7-3.71,7.83-11.61,6.94-17.54l-.13-.88-1.6-10.78-8.54,6.75-.63.5c-4.7,3.72-7.83,11.61-7,17.54l.13.89C259.1,183.45,259.82,188.3,259.81,188.31Z"/><path class="cls-3" d="M114.67,247.83l-16.1-5.49-1.38-.47c-8.86-3-17.61-13-19.43-22.2l-.27-1.35-3.31-16.71,16.11,5.49,1.34.46c8.87,3,17.61,13,19.44,22.21l.27,1.35C113.16,240.31,114.66,247.83,114.67,247.83Z"/><path class="cls-3" d="M121.37,264.21l-14.87,8.27-1.12.63c-8.18,4.55-21.44,4.33-29.47-.5l-1.19-.72-14.6-8.78L75,254.83l1.09-.61c8.19-4.55,21.45-4.33,29.48.5l1.2.72Z"/><path class="cls-3" d="M77.9,236.63l-12.25,5.92-.93.45c-6.74,3.25-17.33,2.46-23.51-1.77l-.92-.63L29,232.91,41.3,227l.9-.44c6.75-3.25,17.33-2.46,23.52,1.77l.93.63C72.83,233.18,77.9,236.64,77.9,236.63Z"/><path class="cls-3" d="M59.3,217.71l-11.37-7.48-.86-.56c-6.26-4.12-11-13.6-10.56-21.08l.07-1.12c.45-7.48.81-13.6.81-13.6l11.38,7.48.84.55c6.26,4.12,11,13.6,10.57,21.08l-.07,1.12C59.66,211.58,59.3,217.7,59.3,217.71Z"/><path class="cls-3" d="M36.85,211.25l-10.72,1.92-.8.14c-5.9,1.06-13.89-1.83-17.74-6.42L7,206.2l-7-8.34,10.72-1.92.79-.14c5.9-1.06,13.89,1.83,17.74,6.42l.58.68Z"/><path class="cls-3" d="M24.3,188.31l-8.54-6.76-.65-.51c-4.7-3.71-7.83-11.61-6.94-17.54l.13-.88,1.6-10.78,8.54,6.75.63.5c4.7,3.72,7.83,11.61,7,17.54l-.13.89C25,183.45,24.29,188.3,24.3,188.31Z"/><path class="cls-3" d="M155.58,240.75a4.76,4.76,0,0,0-2.15-3.71l-9.23-5.3a4.77,4.77,0,0,0-4.29,0l-9.23,5.3a4.76,4.76,0,0,0-2.15,3.71v10.6a4.72,4.72,0,0,0,2.15,3.7l9.23,5.31a4.77,4.77,0,0,0,4.29,0l9.23-5.31a4.72,4.72,0,0,0,2.15-3.7Z"/><path class="cls-1" d="M351.46,86.7l9.4-2.21V24.76l-9.4-2.22V16.46l30.42-.55v6.63l-9.4,2.22V84.49l9.4,2.21v6.64H351.46Z"/><path class="cls-1" d="M427.42,86.7v6.64H397.55V86.7l9.4-2.21V24.76l-9.4-2.22V16.46l23.23-.55,36.5,61.83v-53l-9.4-2.22V16.46l28.76-.55v6.63l-9.4,2.22V93.34H453.41l-36.5-60.95v52.1Z"/><path class="cls-1" d="M501.64,24.76l-9.4-2.22V16.46l21-.55h13.82c21.57,0,34.85,13.27,34.85,37.61s-14.38,39.82-36.5,39.82H492.24V86.7l9.4-2.21ZM526,84.49c13.83,0,23.23-9.41,23.23-30.42,0-20.47-8.85-29.31-22.68-29.31H513.26V84.49Z"/><path class="cls-1" d="M643.26,61.81c0,20.46-7.19,32.63-30.42,32.63-21.57,0-29.31-10.51-29.31-31V24.76l-9.41-2.22V16.46l31.53-.55v6.63l-10.51,2.22V63.47c0,16.59,5.53,21.57,18.25,21.57,13.83,0,18.25-6.08,18.25-23.23v-37l-10.5-2.22V16.46l31.52-.55v6.63l-9.4,2.22Z"/><path class="cls-1" d="M712.16,26.42A43.78,43.78,0,0,0,698,24.2c-14.94,0-23.23,11.06-23.23,31.53,0,19.91,10,28.76,23.78,28.76,11.61,0,22.12-8.85,22.12-8.85l4.43,7.19s-11.06,11.61-27.66,11.61c-22.12,0-35.39-13.27-35.39-38.16,0-25.44,14.38-41.48,37.05-41.48,12.17,0,24.89,5.53,24.89,5.53l-.55,18.8h-8.3Z"/><path class="cls-1" d="M751.57,86.7l11.06-2.21V24.76H748.25l-2.76,11.06H738.3V15.91h60.28V35.82h-7.19l-2.76-11.06H774.25V84.49l11.06,2.21v6.64H751.57Z"/><path class="cls-1" d="M812.83,86.7l9.4-2.21V24.76l-9.4-2.22V16.46l30.41-.55v6.63l-9.4,2.22V84.49l9.4,2.21v6.64H812.83Z"/><path class="cls-1" d="M857.18,16.46l31-.55v6.63l-10.07,2.1L895.45,78.4l18.47-53.64-10.29-2.22V16.46l29.87-.55v6.63l-8.63,2.22L900.32,93.34H889.26L865.69,24.76l-8.51-2.22Z"/><path class="cls-1" d="M994.26,48.54v8.85H968.82v27.1h25.44l2.21-11.06h7.19V93.34H947.8V86.7l9.4-2.21V24.76l-9.4-2.22V16.46l21-.55h33.73v18.8h-7.19l-2.76-9.95H968.82V48.54Z"/><path class="cls-1" d="M420,179.57c0,20.47-7.19,32.63-30.42,32.63-21.57,0-29.31-10.51-29.31-31V142.52l-9.4-2.22v-6.08l31.52-.55v6.63l-10.51,2.22v38.71c0,16.59,5.54,21.57,18.26,21.57,13.82,0,18.25-6.08,18.25-23.23v-37l-10.51-2.22v-6.08l31.52-.55v6.63l-9.4,2.22Z"/><path class="cls-1" d="M474.91,204.46v6.64H445.05v-6.64l9.4-2.21V142.52l-9.4-2.22v-6.08l23.22-.55,36.51,61.83v-53l-9.41-2.22v-6.08l28.76-.55v6.63l-9.4,2.22V211.1H500.91L464.4,150.15v52.1Z"/><path class="cls-1" d="M539.74,204.46l9.4-2.21V142.52l-9.4-2.22v-6.08l30.42-.55v6.63l-9.41,2.22v59.73l9.41,2.21v6.64H539.74Z"/><path class="cls-1" d="M584.09,134.22l31-.55v6.63L605,142.41l17.37,53.75,18.47-53.64-10.28-2.22v-6.08l29.86-.55v6.63l-8.63,2.22L627.23,211.1H616.17l-23.56-68.58-8.52-2.22Z"/><path class="cls-1" d="M721.17,166.3v8.85H695.73v27.1h25.44l2.21-11.06h7.19V211.1H674.71v-6.64l9.4-2.21V142.52l-9.4-2.22v-6.08l21-.55h33.74v18.8h-7.19l-2.77-9.95H695.73V166.3Z"/><path class="cls-1" d="M756.45,142.52l-9.4-2.22v-6.08l21-.55h12.16c15.6,0,24.89,7.52,24.89,19.91,0,10.73-4.87,18-14.38,21.57,1.77,1.55,3.76,4.42,6.64,9.95l8.74,17.59,7.85,1.77v6.64H797.38L788,190.63c-5.2-11.06-7.64-13.27-14.94-13.27h-5v24.89l9.4,2.21v6.64H747.05v-6.64l9.4-2.21Zm19.91,26.54c10.84,0,17.15-5.09,17.15-13.82,0-7.42-5.75-12.72-13.83-12.72H768.07v26.54Z"/><path class="cls-1" d="M837.19,200a27.27,27.27,0,0,0,12.17,2.76c8.08,0,16.93-4,16.93-11.84,0-17-39.94-10-39.94-36.39,0-15.48,12.39-22,26.22-22,10.51,0,23.34,4.43,23.34,4.43l-.55,18.8h-7.19L864.4,144a39.92,39.92,0,0,0-11.72-2c-9.95,0-14.71,5.2-14.71,10.73,0,16.82,39.82,10.4,39.82,35.29,0,16.59-13.39,24.22-28.87,24.22-11.61,0-22.79-4.42-22.79-4.42V188.42H835Z"/><path class="cls-1" d="M893.49,204.46l9.4-2.21V142.52l-9.4-2.22v-6.08l30.42-.55v6.63l-9.4,2.22v59.73l9.4,2.21v6.64H893.49Z"/><path class="cls-1" d="M951.36,204.46l11.06-2.21V142.52H948l-2.76,11.06h-7.19V133.67h60.28v19.91h-7.19l-2.76-11.06H974v59.73l11.06,2.21v6.64H951.36Z"/><path class="cls-1" d="M1039.63,182.45l-21.35-40-7.41-2.11v-6.08l27.65-.55v6.63l-7.52,2.22,14.71,31,16.26-31-8.52-2.22v-6.08l26.55-.55v6.63l-6.86,2-21.9,39.94v20l9.4,2.21v6.64h-30.42v-6.64l9.41-2.21Z"/><path class="cls-1" d="M360,242.8h4.17v11.77a9,9,0,0,1,7.32-3.8c5.84,0,10,4.58,10,11.77s-4.17,11.72-10,11.72a9.18,9.18,0,0,1-7.32-3.75v3.19H360Zm10.38,27.75c4.17,0,6.76-3.33,6.76-8s-2.59-8.07-6.76-8.07a7.7,7.7,0,0,0-6.21,3.34v9.5A7.61,7.61,0,0,0,370.42,270.55Z"/><path class="cls-1" d="M388.21,279.08a3.1,3.1,0,0,0,3.25-2.18l1.29-3-9.22-22.62H388l7,17.56,7-17.56h4.49l-11,26.65a7.07,7.07,0,0,1-7.13,4.82,11.79,11.79,0,0,1-2.6-.33l.65-3.75A5.13,5.13,0,0,0,388.21,279.08Z"/><path class="cls-1" d="M421.16,244.93a2.69,2.69,0,0,1,5.38,0,2.69,2.69,0,0,1-5.38,0Zm.65,6.39H426V273.7h-4.17Z"/><path class="cls-1" d="M447.72,259.38c0-3.7-1.9-4.91-4.78-4.91a8,8,0,0,0-6.16,3.25v16h-4.17V251.32h4.17v3.15a10.69,10.69,0,0,1,7.92-3.7c4.73,0,7.19,2.5,7.19,7.22V273.7h-4.17Z"/><path class="cls-1" d="M474.46,270.51a9.28,9.28,0,0,1-7.33,3.75c-5.84,0-10-4.4-10-11.72s4.17-11.77,10-11.77a9.13,9.13,0,0,1,7.33,3.8V242.8h4.17v30.9h-4.17Zm0-12.75a7.77,7.77,0,0,0-6.21-3.29c-4.17,0-6.77,3.39-6.77,8.07s2.6,8,6.77,8a7.7,7.7,0,0,0,6.21-3.24Z"/><path class="cls-1" d="M500.41,270.65a11.08,11.08,0,0,1-8,3.61c-4.78,0-7.14-2.41-7.14-7.14v-15.8h4.17v14.41c0,3.71,1.86,4.82,4.73,4.82a8.09,8.09,0,0,0,6.21-3.15V251.32h4.17V273.7h-4.17Z"/><path class="cls-1" d="M521.22,250.77a9.78,9.78,0,0,1,8.38,3.93l-2.78,2.55a6.24,6.24,0,0,0-5.42-2.78c-4.4,0-7.23,3.39-7.23,8s2.83,8.06,7.23,8.06a6.34,6.34,0,0,0,5.42-2.78l2.78,2.55a9.76,9.76,0,0,1-8.38,3.94c-6.77,0-11.4-5.05-11.4-11.77S514.45,250.77,521.22,250.77Z"/><path class="cls-1" d="M535,268.75V255h-3.71v-3.66H535V245.2h4.17v6.12h4.54V255H539.2v12.84c0,1.57.74,2.73,2.17,2.73a3.2,3.2,0,0,0,2.28-.88l1.06,3.15a5.91,5.91,0,0,1-4.35,1.44C536.83,274.26,535,272.27,535,268.75Z"/><path class="cls-1" d="M547.72,244.93a2.72,2.72,0,0,1,2.69-2.69,2.68,2.68,0,0,1,2.69,2.69,2.65,2.65,0,0,1-2.69,2.64A2.69,2.69,0,0,1,547.72,244.93Zm.65,6.39h4.17V273.7h-4.17Z"/><path class="cls-1" d="M555.88,251.32h4.45l7,17.56,7-17.56h4.5L569.6,273.7h-4.5Z"/><path class="cls-1" d="M592,250.77c6.72,0,10.89,5.23,10.89,12.09v1h-17.7a7.33,7.33,0,0,0,7.6,6.95,9.53,9.53,0,0,0,6.62-2.64l1.95,2.73a12.6,12.6,0,0,1-9,3.34c-6.67,0-11.59-4.73-11.59-11.77C580.81,256,585.49,250.77,592,250.77Zm-6.86,10.1h13.67a6.63,6.63,0,0,0-6.81-6.68C587.53,254.19,585.4,257.81,585.17,260.87Z"/><path class="cls-1" d="M633.92,271.25a9.61,9.61,0,0,1-7.32,3c-3.71,0-7.79-2.5-7.79-7.41,0-5.1,4-7.33,7.79-7.33a9.34,9.34,0,0,1,7.32,3v-3.71c0-2.78-2.27-4.45-5.47-4.45a9.18,9.18,0,0,0-6.72,3l-1.8-2.87a12.56,12.56,0,0,1,9.17-3.66c4.87,0,9,2.13,9,7.83v15.1h-4.17Zm0-6.26a7.09,7.09,0,0,0-5.75-2.55c-3,0-5.14,1.81-5.14,4.45s2.13,4.45,5.14,4.45a7.09,7.09,0,0,0,5.75-2.55Z"/><path class="cls-1" d="M659.87,270.65a11.06,11.06,0,0,1-8,3.61c-4.77,0-7.13-2.41-7.13-7.14v-15.8h4.17v14.41c0,3.71,1.85,4.82,4.72,4.82a8.07,8.07,0,0,0,6.21-3.15V251.32H664V273.7h-4.17Z"/><path class="cls-1" d="M671.51,268.75V255H667.8v-3.66h3.71V245.2h4.17v6.12h4.54V255h-4.54v12.84c0,1.57.74,2.73,2.18,2.73a3.19,3.19,0,0,0,2.27-.88l1.06,3.15a5.91,5.91,0,0,1-4.35,1.44C673.31,274.26,671.51,272.27,671.51,268.75Z"/><path class="cls-1" d="M683.46,262.49c0-6.44,4.36-11.72,11.31-11.72s11.31,5.28,11.31,11.72-4.31,11.77-11.31,11.77S683.46,269,683.46,262.49Zm18.26,0c0-4.22-2.45-8-7-8s-6.95,3.8-6.95,8,2.5,8.06,6.95,8.06S701.72,266.75,701.72,262.49Z"/><path class="cls-1" d="M738.56,258.78c0-2.59-1.15-4.31-3.89-4.31a7.22,7.22,0,0,0-5.56,3.2v16h-4.17V258.78c0-2.59-1.11-4.31-3.94-4.31a7.29,7.29,0,0,0-5.47,3.25v16h-4.17V251.32h4.17v3.15a9.69,9.69,0,0,1,7.23-3.7c3.38,0,5.38,1.76,6.07,4.17a9.39,9.39,0,0,1,7.56-4.17c4.12,0,6.34,2.27,6.34,6.76V273.7h-4.17Z"/><path class="cls-1" d="M763.17,271.25a9.61,9.61,0,0,1-7.32,3c-3.71,0-7.78-2.5-7.78-7.41,0-5.1,4-7.33,7.78-7.33a9.34,9.34,0,0,1,7.32,3v-3.71c0-2.78-2.27-4.45-5.47-4.45a9.2,9.2,0,0,0-6.72,3l-1.8-2.87a12.56,12.56,0,0,1,9.17-3.66c4.87,0,9,2.13,9,7.83v15.1h-4.17Zm0-6.26a7.08,7.08,0,0,0-5.74-2.55c-3,0-5.15,1.81-5.15,4.45s2.13,4.45,5.15,4.45a7.08,7.08,0,0,0,5.74-2.55Z"/><path class="cls-1" d="M774.85,268.75V255h-3.7v-3.66h3.7V245.2H779v6.12h4.54V255H779v12.84c0,1.57.74,2.73,2.18,2.73a3.19,3.19,0,0,0,2.27-.88l1.07,3.15a5.92,5.92,0,0,1-4.36,1.44C776.66,274.26,774.85,272.27,774.85,268.75Z"/><path class="cls-1" d="M787.55,244.93a2.69,2.69,0,1,1,5.38,0,2.69,2.69,0,0,1-5.38,0Zm.65,6.39h4.17V273.7H788.2Z"/><path class="cls-1" d="M797.61,262.49c0-6.44,4.35-11.72,11.3-11.72s11.31,5.28,11.31,11.72-4.31,11.77-11.31,11.77S797.61,269,797.61,262.49Zm18.26,0c0-4.22-2.46-8-7-8s-6.95,3.8-6.95,8,2.5,8.06,6.95,8.06S815.87,266.75,815.87,262.49Z"/><path class="cls-1" d="M840.61,259.38c0-3.7-1.9-4.91-4.77-4.91a8,8,0,0,0-6.17,3.25v16H825.5V251.32h4.17v3.15a10.71,10.71,0,0,1,7.93-3.7c4.73,0,7.18,2.5,7.18,7.22V273.7h-4.17Z"/></svg>