<svg id="Layer_1" data-name="Layer 1" xmlns="http://www.w3.org/2000/svg" viewBox="0 0 816 1080"><defs><style>.cls-1{fill:#f7901e;}</style></defs><path class="cls-1" d="M46.65,601.86l15.57,22.72C72,638.9,84.58,657.34,98,676.85a275.26,275.26,0,0,1,90.58-57c-3.16-10.47-6.31-20.89-9.07-30l-13.44-45.09c-5.78-19.71-10.42-34.22-13.75-43.57-3.45-9.55-6.85-17.71-10-24.37-9.17-19-23-31.64-41.13-37.67-17.64-5.71-37-4-56.45,5.27-19.65,9.42-33,23.05-39.55,40.69C-1.57,503-.44,521.67,8.6,540.64c3.26,6.71,7.4,14.44,12.74,23.23Q29,576.48,46.65,601.86Z"/><path class="cls-1" d="M309.65,927.37A50.69,50.69,0,1,1,259,876.7,50.69,50.69,0,0,1,309.65,927.37Z"/><path class="cls-1" d="M809.34,63.63A106.13,106.13,0,0,0,764,14.22C743.47,2.6,721.24-2,698.26.78c-24.73,3-45.89,19.4-62.66,49-2.7,4.83-9.79,19.52-21.1,44.07l-42.31,91.05q-25.62,55.1-58,123.82Q481.58,377.54,447,453.55C434.8,480.11,402.15,548,370.89,613c-11.52,23.94-22.71,47.19-32.69,68-86.08-22.66-180,12.53-227.2,93.1a203.29,203.29,0,0,0-8,190.68l99.12-169.22,131.66.83,65.11,114.43L299.77,1080a203.27,203.27,0,0,0,162.4-100.22c51.84-88.5,28.6-199.45-49.44-261.45,5.72-8.82,11.23-17,17-26,23.23-36.16,47.34-73.46,72.84-110.76Q576.65,474,640,380L747.87,220.54q45.3-66.58,51.61-77.92C816.31,113.05,819.57,86.55,809.34,63.63Zm-92.06,83.53A50.69,50.69,0,1,1,768,96.46,50.7,50.7,0,0,1,717.28,147.16Z"/></svg>