<svg id="Layer_1" data-name="Layer 1" xmlns="http://www.w3.org/2000/svg" viewBox="0 0 1080 270"><defs><style>.cls-1{fill:#445c6d;}.cls-2{fill:#fff;}.cls-3{fill:#8dc63e;}</style></defs><path class="cls-1" d="M52.16,57.69a15.55,15.55,0,0,1,7-12.17L135,2A15.63,15.63,0,0,1,149,2l75.77,43.54a15.55,15.55,0,0,1,7,12.17v87a15.53,15.53,0,0,1-7,12.16L149,200.44a15.69,15.69,0,0,1-14.07,0L59.2,156.89a15.53,15.53,0,0,1-7-12.16Z"/><path class="cls-2" d="M88.4,132.11l7-2.8V85.55l-7-2.8V74.84l28.4-.47v8.38l-7,2.8v43.76l7,2.8V140H88.4Z"/><path class="cls-2" d="M150.45,114.88c0,10.71,3.07,14.9,12.2,14.9,9.87,0,12-5.31,12-16.3V85.55l-7.26-2.8V74.84l28.68-.47v8.38l-7,2.8v27.93c0,18-6.89,27.66-26.91,27.66-18.71,0-26.16-8.29-26.16-26.26V85.55l-6.89-2.8V74.84l28.59-.47v8.38l-7.27,2.8Z"/><path class="cls-3" d="M169.44,241.14l16.1-5.49,1.38-.47c8.86-3,17.61-13,19.43-22.2l.27-1.35,3.31-16.71-16.11,5.49-1.34.46c-8.87,3-17.61,13-19.44,22.21l-.27,1.35C171,233.62,169.45,241.14,169.44,241.14Z"/><path class="cls-3" d="M162.74,257.52l14.87,8.27,1.12.63c8.18,4.55,21.44,4.33,29.47-.5l1.19-.72,14.6-8.78-14.87-8.28-1.09-.61c-8.19-4.55-21.45-4.33-29.48.5l-1.2.72Z"/><path class="cls-3" d="M206.21,229.94l12.25,5.92.93.45c6.74,3.25,17.33,2.46,23.51-1.77l.92-.63,11.25-7.69-12.26-5.92-.9-.44c-6.75-3.25-17.33-2.46-23.52,1.77l-.93.63C211.28,226.49,206.21,230,206.21,229.94Z"/><path class="cls-3" d="M224.81,211l11.37-7.48L237,203c6.26-4.12,11-13.6,10.56-21.08l-.07-1.12c-.45-7.48-.81-13.6-.81-13.6l-11.38,7.48-.84.55c-6.26,4.11-11,13.6-10.57,21.08l.07,1.12C224.45,204.89,224.81,211,224.81,211Z"/><path class="cls-3" d="M247.26,204.56,258,206.48l.8.14c5.9,1.06,13.89-1.83,17.74-6.42l.58-.69,7-8.34-10.72-1.92-.79-.14c-5.9-1.06-13.89,1.83-17.74,6.42l-.58.68Z"/><path class="cls-3" d="M259.81,181.61l8.54-6.75.65-.51c4.7-3.71,7.83-11.61,6.94-17.54l-.13-.88-1.6-10.78-8.54,6.75-.63.5c-4.7,3.72-7.83,11.61-7,17.54l.13.89C259.1,176.76,259.82,181.61,259.81,181.61Z"/><path class="cls-3" d="M114.67,241.14l-16.1-5.49-1.38-.47c-8.86-3-17.61-13-19.43-22.2l-.27-1.35-3.31-16.71,16.11,5.49,1.34.46c8.87,3,17.61,13,19.44,22.21l.27,1.35C113.16,233.62,114.66,241.14,114.67,241.14Z"/><path class="cls-3" d="M121.37,257.52l-14.87,8.27-1.12.63c-8.18,4.55-21.44,4.33-29.47-.5l-1.19-.72-14.6-8.78L75,248.14l1.09-.61c8.19-4.55,21.45-4.33,29.48.5l1.2.72Z"/><path class="cls-3" d="M77.9,229.94l-12.25,5.92-.93.45c-6.74,3.25-17.33,2.46-23.51-1.77l-.92-.63L29,226.22,41.3,220.3l.9-.44c6.75-3.25,17.33-2.46,23.52,1.77l.93.63C72.83,226.49,77.9,230,77.9,229.94Z"/><path class="cls-3" d="M59.3,211l-11.37-7.48-.86-.56c-6.26-4.12-11-13.6-10.56-21.08l.07-1.12c.45-7.48.81-13.6.81-13.6l11.38,7.48.84.55c6.26,4.11,11,13.6,10.57,21.08l-.07,1.12C59.66,204.89,59.3,211,59.3,211Z"/><path class="cls-3" d="M36.85,204.56l-10.72,1.92-.8.14c-5.9,1.06-13.89-1.83-17.74-6.42L7,199.51l-7-8.34,10.72-1.92.79-.14c5.9-1.06,13.89,1.83,17.74,6.42l.58.68Z"/><path class="cls-3" d="M24.3,181.61l-8.54-6.75-.65-.51c-4.7-3.71-7.83-11.61-6.94-17.54l.13-.88,1.6-10.78,8.54,6.75.63.5c4.7,3.72,7.83,11.61,7,17.54l-.13.89C25,176.76,24.29,181.61,24.3,181.61Z"/><path class="cls-3" d="M155.58,234.06a4.76,4.76,0,0,0-2.15-3.71l-9.23-5.3a4.77,4.77,0,0,0-4.29,0l-9.23,5.3a4.76,4.76,0,0,0-2.15,3.71v10.6a4.74,4.74,0,0,0,2.15,3.7l9.23,5.31a4.77,4.77,0,0,0,4.29,0l9.23-5.31a4.74,4.74,0,0,0,2.15-3.7Z"/><path class="cls-1" d="M351.46,120.29l9.4-2.21V58.35l-9.4-2.21V50.05l30.42-.55v6.64l-9.4,2.21v59.73l9.4,2.21v6.64H351.46Z"/><path class="cls-1" d="M427.42,120.29v6.64H397.55v-6.64l9.4-2.21V58.35l-9.4-2.21V50.05l23.23-.55,36.5,61.83v-53l-9.4-2.21V50.05l28.76-.55v6.64l-9.4,2.21v68.58H453.41L416.91,66v52.1Z"/><path class="cls-1" d="M501.64,58.35l-9.4-2.21V50.05l21-.55h13.82c21.57,0,34.85,13.27,34.85,37.61s-14.38,39.82-36.5,39.82H492.24v-6.64l9.4-2.21ZM526,118.08c13.83,0,23.23-9.4,23.23-30.42,0-20.46-8.85-29.31-22.68-29.31H513.26v59.73Z"/><path class="cls-1" d="M643.26,95.41c0,20.46-7.19,32.63-30.42,32.63-21.57,0-29.31-10.51-29.31-31V58.35l-9.41-2.21V50.05l31.53-.55v6.64l-10.51,2.21V97.06c0,16.6,5.53,21.57,18.25,21.57,13.83,0,18.25-6.08,18.25-23.22V58.35l-10.5-2.21V50.05l31.52-.55v6.64l-9.4,2.21Z"/><path class="cls-1" d="M712.16,60A44,44,0,0,0,698,57.8c-14.94,0-23.23,11.06-23.23,31.52,0,19.91,10,28.76,23.78,28.76,11.61,0,22.12-8.85,22.12-8.85l4.43,7.19S714.05,128,697.45,128c-22.12,0-35.39-13.28-35.39-38.17,0-25.44,14.38-41.48,37.05-41.48,12.17,0,24.89,5.54,24.89,5.54l-.55,18.8h-8.3Z"/><path class="cls-1" d="M751.57,120.29l11.06-2.21V58.35H748.25l-2.76,11.06H738.3V49.5h60.28V69.41h-7.19l-2.76-11.06H774.25v59.73l11.06,2.21v6.64H751.57Z"/><path class="cls-1" d="M812.83,120.29l9.4-2.21V58.35l-9.4-2.21V50.05l30.41-.55v6.64l-9.4,2.21v59.73l9.4,2.21v6.64H812.83Z"/><path class="cls-1" d="M857.18,50.05l31-.55v6.64l-10.07,2.1L895.45,112l18.47-53.65-10.29-2.21V50.05l29.87-.55v6.64l-8.63,2.21-24.55,68.58H889.26L865.69,58.35l-8.51-2.21Z"/><path class="cls-1" d="M994.26,82.13V91H968.82v27.1h25.44L996.47,107h7.19v19.91H947.8v-6.64l9.4-2.21V58.35l-9.4-2.21V50.05l21-.55h33.73V68.3h-7.19l-2.76-9.95H968.82V82.13Z"/><path class="cls-1" d="M420,213.17c0,20.46-7.19,32.63-30.42,32.63-21.57,0-29.31-10.51-29.31-31V176.11l-9.4-2.21v-6.09l31.52-.55v6.64l-10.51,2.21v38.71c0,16.6,5.54,21.57,18.26,21.57,13.82,0,18.25-6.08,18.25-23.22V176.11l-10.51-2.21v-6.09l31.52-.55v6.64l-9.4,2.21Z"/><path class="cls-1" d="M474.91,238.05v6.64H445.05v-6.64l9.4-2.21V176.11l-9.4-2.21v-6.09l23.22-.55,36.51,61.83v-53l-9.41-2.21v-6.09l28.76-.55v6.64l-9.4,2.21v68.58H500.91L464.4,183.74v52.1Z"/><path class="cls-1" d="M539.74,238.05l9.4-2.21V176.11l-9.4-2.21v-6.09l30.42-.55v6.64l-9.41,2.21v59.73l9.41,2.21v6.64H539.74Z"/><path class="cls-1" d="M584.09,167.81l31-.55v6.64L605,176l17.37,53.76,18.47-53.65-10.28-2.21v-6.09l29.86-.55v6.64l-8.63,2.21-24.55,68.58H616.17l-23.56-68.58-8.52-2.21Z"/><path class="cls-1" d="M721.17,199.89v8.85H695.73v27.1h25.44l2.21-11.06h7.19v19.91H674.71v-6.64l9.4-2.21V176.11l-9.4-2.21v-6.09l21-.55h33.74v18.8h-7.19l-2.77-9.95H695.73v23.78Z"/><path class="cls-1" d="M756.45,176.11l-9.4-2.21v-6.09l21-.55h12.16c15.6,0,24.89,7.52,24.89,19.91,0,10.73-4.87,18-14.38,21.57,1.77,1.55,3.76,4.43,6.64,10l8.74,17.58,7.85,1.77v6.64H797.38L788,224.23C782.78,213.17,780.34,211,773,211h-5v24.89l9.4,2.21v6.64H747.05v-6.64l9.4-2.21Zm19.91,26.55c10.84,0,17.15-5.09,17.15-13.83,0-7.41-5.76-12.72-13.83-12.72H768.07v26.55Z"/><path class="cls-1" d="M837.19,233.63a27.27,27.27,0,0,0,12.17,2.76c8.08,0,16.93-4,16.93-11.83,0-17-39.94-10-39.94-36.39,0-15.49,12.39-22,26.22-22,10.51,0,23.34,4.43,23.34,4.43l-.55,18.8h-7.19l-3.77-11.83a39.92,39.92,0,0,0-11.72-2c-9.95,0-14.71,5.2-14.71,10.73,0,16.81,39.82,10.39,39.82,35.28,0,16.59-13.39,24.23-28.87,24.23-11.61,0-22.79-4.43-22.79-4.43V222H835Z"/><path class="cls-1" d="M893.49,238.05l9.4-2.21V176.11l-9.4-2.21v-6.09l30.42-.55v6.64l-9.4,2.21v59.73l9.4,2.21v6.64H893.49Z"/><path class="cls-1" d="M951.36,238.05l11.06-2.21V176.11H948l-2.76,11.06h-7.19V167.26h60.28v19.91h-7.19l-2.76-11.06H974v59.73l11.06,2.21v6.64H951.36Z"/><path class="cls-1" d="M1039.63,216l-21.35-40-7.41-2.1v-6.09l27.65-.55v6.64l-7.52,2.21,14.71,31,16.26-31-8.52-2.21v-6.09l26.55-.55v6.64l-6.86,2-21.9,39.93v20l9.4,2.21v6.64h-30.42v-6.64l9.41-2.21Z"/></svg>