<svg id="Layer_1" data-name="Layer 1" xmlns="http://www.w3.org/2000/svg" viewBox="0 0 1080 316"><defs><style>.cls-1{fill:#445c6d;}.cls-2{fill:#8dc63f;}</style></defs><path class="cls-1" d="M390.11,161.32v-79H377.36V68.4H406.6v92.92Zm9-128.06a10.23,10.23,0,0,1,10.24,10.15,10.2,10.2,0,1,1-17.44-7.2A9.78,9.78,0,0,1,399.14,33.26Z"/><path class="cls-1" d="M485.19,161.32v-54q0-14.83-4.48-20.78t-15-5.95A24.49,24.49,0,0,0,454,83.93a26.17,26.17,0,0,0-9.46,8.33v69.06H428V68.4h11.27l5.21,12q8.16-13.71,26.64-13.71,30.54,0,30.54,37.14v57.52Z"/><path class="cls-1" d="M580.46,161.24v-6.85q-8.6,8.58-25,8.58-17.43,0-28.28-12.49t-10.84-33.32q0-20.91,12.49-35.71t29.76-14.79q14.4,0,21.87,6.77V30.31h16.48V161.24Zm0-71.33q-6.26-9.36-17.1-9.37-13.27,0-21.48,9.9t-8.19,25.16q0,33.57,30.54,33.58a23.53,23.53,0,0,0,9.37-2.48q5.48-2.46,6.86-5.25Z"/><path class="cls-1" d="M635.27,68.4v59.26q0,21.51,18.66,21.52a25.68,25.68,0,0,0,14.92-4.69q6.78-4.68,8.93-10.84V68.4h16.5v92.92h-16.5V148.48q-2.76,5.47-11.14,10a34.19,34.19,0,0,1-16.35,4.55q-15.28,0-23.39-8.76t-8.11-24.91v-61Z"/><path class="cls-1" d="M787.74,76l-8.16,11.62q-2.52-2.5-8.89-4.77a37.54,37.54,0,0,0-12.54-2.26q-13.44,0-21.34,9.42t-7.9,25.81q0,16.32,8.07,24.86t22.39,8.55q11.1,0,22.38-8.59l6.51,13.88q-13.28,8.59-32.88,8.59-19,0-31.41-12.76t-12.41-34.53q0-22.22,12.88-35.66t35.27-13.45a46.38,46.38,0,0,1,15.62,3Q783.75,72.73,787.74,76Z"/><path class="cls-1" d="M808,81.41H797.2v-13H808V49l16.48-6.33V68.4H850v13H824.44v46.16q0,11.72,3.95,16.66t12.72,5A30.49,30.49,0,0,0,854.2,146l2.44,14.49a91.5,91.5,0,0,1-22.48,2.6,24.36,24.36,0,0,1-18.61-8.2Q808,146.65,808,134.17Z"/><path class="cls-1" d="M878.72,161.32v-79H866V68.4h29.25v92.92Zm9-128.06A10.21,10.21,0,0,1,898,43.41a10.2,10.2,0,1,1-17.44-7.2A9.78,9.78,0,0,1,887.75,33.26Z"/><path class="cls-1" d="M951.35,163.06H947L907.19,68.14h18l24.55,65.07,25.08-65.07h17.27Z"/><path class="cls-1" d="M1078.7,116.47h-67q0,16.31,8.94,25.07,7.89,7.64,20.3,7.64,14.15,0,23.61-8.25l6.94,11.89q-3.82,3.83-11.72,6.6a63.33,63.33,0,0,1-22,3.64A41.07,41.07,0,0,1,1008,151.17Q994.36,138.07,994.36,116q0-23,14-36.88,12.49-12.4,29.59-12.41,19.86,0,31.14,11.19Q1080,88.62,1080,106.4A37.19,37.19,0,0,1,1078.7,116.47Zm-40-35.93a26.06,26.06,0,0,0-26.55,23.95h51.45a23.48,23.48,0,0,0-6.24-16.66Q1050.49,80.54,1038.7,80.54Z"/><path class="cls-1" d="M410.53,261.43q-6.18,7.76-18.93,7.75a16.27,16.27,0,0,1-11.85-5,16.61,16.61,0,0,1-5-12.34q0-8.84,7.73-14.94t19.72-6.1a23.13,23.13,0,0,1,7.38,1.41q0-14.1-12.59-14.1-9.64,0-14.86,5.21l-4.34-8.63a25.3,25.3,0,0,1,8.11-4.09,31.54,31.54,0,0,1,9.9-1.71q12.64,0,18.36,5.75t5.72,18.27v20.83c0,5.11,1.52,8.5,4.56,10.2v5.16c-4.2,0-7.33-.6-9.41-1.79A10.17,10.17,0,0,1,410.53,261.43Zm-1-21.87a37.56,37.56,0,0,0-6.84-1.08q-7.8,0-12.74,4c-3.3,2.67-4.94,5.84-4.94,9.48q0,9.07,10.68,9.07,7.81,0,13.84-7.44Z"/><path class="cls-1" d="M459.73,210v37.05q0,13.45,11.66,13.45a16,16,0,0,0,9.33-2.93,14,14,0,0,0,5.58-6.78V210h10.31v58.1H486.3v-8c-1.15,2.28-3.48,4.37-7,6.27a21.35,21.35,0,0,1-10.23,2.85q-9.54,0-14.62-5.48t-5.07-15.57V210Z"/><path class="cls-1" d="M531,218.14h-6.72V210H531V197.85l10.31-4V210h15.94v8.14H541.32V247c0,4.87.82,8.35,2.46,10.41s4.3,3.09,8,3.09a19,19,0,0,0,8.19-2l1.52,9.07a57.71,57.71,0,0,1-14.05,1.62,15.25,15.25,0,0,1-11.64-5.13A18.3,18.3,0,0,1,531,251.12Z"/><path class="cls-1" d="M582,238.91q0-13.46,7.24-21.72t19.07-8.27q12.46,0,19.36,7.94t6.89,22q0,14.06-7.05,22.16t-19.2,8.11q-12.44,0-19.37-8.19T582,238.91Zm10.85,0q0,21.87,15.46,21.86a13.06,13.06,0,0,0,11.31-5.85q4.1-5.86,4.09-16,0-21.58-15.4-21.58a13.26,13.26,0,0,0-11.26,5.74Q592.86,228.83,592.86,238.91Z"/><path class="cls-1" d="M730.13,268.1V231.32q0-13.73-11.89-13.72a11.91,11.91,0,0,0-7,2.3,12.1,12.1,0,0,0-4.45,5.24v43H696.5V226.82a8,8,0,0,0-3.24-6.76,13.69,13.69,0,0,0-8.54-2.46,11.84,11.84,0,0,0-6.59,2.38,14.65,14.65,0,0,0-5,5.26V268.1h-10.3V210h6.72l3.42,6.73q6-7.81,14.92-7.81,12.47,0,17.46,7.75c1.15-2.2,3.31-4,6.45-5.52a22.49,22.49,0,0,1,9.72-2.23q9,0,13.93,5.34t4.94,15V268.1Z"/><path class="cls-1" d="M804.55,261.43q-6.18,7.76-18.93,7.75a16.24,16.24,0,0,1-11.85-5,16.61,16.61,0,0,1-5-12.34q0-8.84,7.73-14.94t19.72-6.1a23.08,23.08,0,0,1,7.37,1.41q0-14.1-12.58-14.1-9.66,0-14.86,5.21l-4.34-8.63a25.3,25.3,0,0,1,8.11-4.09,31.54,31.54,0,0,1,9.9-1.71q12.63,0,18.35,5.75t5.73,18.27v20.83c0,5.11,1.52,8.5,4.55,10.2v5.16c-4.19,0-7.33-.6-9.4-1.79A10.09,10.09,0,0,1,804.55,261.43Zm-1-21.87a37.37,37.37,0,0,0-6.83-1.08q-7.82,0-12.75,4c-3.29,2.67-4.93,5.84-4.93,9.48q0,9.07,10.68,9.07,7.82,0,13.83-7.44Z"/><path class="cls-1" d="M849.33,218.14h-6.72V210h6.72V197.85l10.31-4V210h16v8.14h-16V247c0,4.87.83,8.35,2.47,10.41s4.3,3.09,7.94,3.09a19,19,0,0,0,8.19-2l1.53,9.07a57.74,57.74,0,0,1-14.06,1.62,15.24,15.24,0,0,1-11.63-5.13,18.31,18.31,0,0,1-4.75-12.93Z"/><path class="cls-1" d="M910.24,268.1V218.68h-8V210h18.29v58.1ZM915.88,188a6.3,6.3,0,1,1-4.5,1.84A6.1,6.1,0,0,1,915.88,188Z"/><path class="cls-1" d="M948.68,238.91q0-13.46,7.24-21.72T975,208.92q12.46,0,19.36,7.94t6.89,22q0,14.06-7,22.16T975,269.18q-12.42,0-19.37-8.19T948.68,238.91Zm10.85,0q0,21.87,15.46,21.86a13.06,13.06,0,0,0,11.31-5.85q4.1-5.86,4.09-16,0-21.58-15.4-21.58a13.26,13.26,0,0,0-11.26,5.74Q959.53,228.83,959.53,238.91Z"/><path class="cls-1" d="M1063.94,268.1V234.31q0-9.28-2.79-13c-1.86-2.48-5-3.71-9.36-3.71a15.36,15.36,0,0,0-7.38,2.11,16.53,16.53,0,0,0-5.91,5.21V268.1h-10.3V210h7l3.25,7.49q5.1-8.58,16.65-8.57,19.1,0,19.1,23.22v36Z"/><path class="cls-1" d="M288.68,158q0-6.36-.6-12.57l27.75-18.62a158,158,0,0,0-5.53-20.76L277,103.79A131.91,131.91,0,0,0,264.35,82L279,52.08a163.27,163.27,0,0,0-15.22-15.23l-29.93,14.7a129.6,129.6,0,0,0-21.8-12.61L209.83,5.59A157.58,157.58,0,0,0,189.1.07L170.48,27.81c-4.14-.39-8.35-.6-12.57-.6s-8.43.21-12.58.6L126.73.07A157.11,157.11,0,0,0,106,5.62L103.7,38.94A129.6,129.6,0,0,0,81.9,51.55L52,36.85A163.27,163.27,0,0,0,36.76,52.08L51.49,82a130.51,130.51,0,0,0-12.61,21.78L5.53,106.05A158,158,0,0,0,0,126.81L27.75,145.4c-.4,4.14-.63,8.34-.63,12.6s.23,8.43.63,12.58L0,189.17A158.34,158.34,0,0,0,5.53,210l33.35,2.24A129.53,129.53,0,0,0,51.49,234L36.76,263.89A162.49,162.49,0,0,0,52,279.13L82,264.43A132.13,132.13,0,0,0,103.7,277L106,310.37a159.57,159.57,0,0,0,20.75,5.56l18.62-27.78c4.15.39,8.32.64,12.58.64s8.45-.25,12.59-.64l18.63,27.75a161.55,161.55,0,0,0,20.7-5.53L212.09,277a133,133,0,0,0,21.8-12.59l29.93,14.7A161.85,161.85,0,0,0,279,263.92L264.35,234A130.18,130.18,0,0,0,277,212.19L310.27,210a159.27,159.27,0,0,0,5.56-20.78l-27.75-18.59C288.48,166.43,288.68,162.25,288.68,158ZM157.91,256.34A98.34,98.34,0,1,1,256.26,158,98.34,98.34,0,0,1,157.91,256.34Z"/><path class="cls-2" d="M220,158c0-8.11-34.84-60.51-34.84-60.51-2.76-4.76-11.65-4.76-19.83,0s-12.58,12.47-9.81,17.24l3.88,6.67,10.8,18.74H99.68c-5.51,0-10,8-10,17.9v0h0v0c0,9.89,4.49,17.91,10,17.9h70.55l-10.8,18.74-3.88,6.67c-2.77,4.77,1.62,12.49,9.81,17.24s17.07,4.74,19.83,0c0,0,34.84-52.4,34.84-60.51V158Z"/></svg>