<svg id="Layer_1" data-name="Layer 1" xmlns="http://www.w3.org/2000/svg" viewBox="0 0 1080 980"><defs><style>.cls-1{fill:#445c6d;}.cls-2{fill:#fff;}.cls-3{fill:#8dc63e;}</style></defs><path class="cls-1" d="M53,796.27,66.83,793V705.17L53,701.92V693l44.74-.81v9.76l-13.83,3.25V793l13.83,3.26V806H53Z"/><path class="cls-1" d="M165.08,796.27V806H121.16v-9.76L135,793V705.17l-13.82-3.25V693l34.15-.81L209,783.09V705.17l-13.83-3.25V693l42.29-.81v9.76l-13.82,3.25V806H203.3L149.62,716.4V793Z"/><path class="cls-1" d="M274.59,705.17l-13.82-3.25V693l30.9-.81H312c31.72,0,51.24,19.52,51.24,55.3S342.1,806,309.57,806h-48.8v-9.76L274.59,793ZM310.38,793c20.33,0,34.16-13.82,34.16-44.73,0-30.09-13-43.11-33.35-43.11H291.67V793Z"/><path class="cls-1" d="M483.29,759.66c0,30.1-10.57,48-44.73,48-31.72,0-43.11-15.45-43.11-45.55V705.17l-13.82-3.25V693l46.35-.81v9.76l-15.45,3.25V762.1c0,24.41,8.13,31.73,26.84,31.73,20.33,0,26.84-9,26.84-34.17V705.17l-15.45-3.25V693l46.36-.81v9.76l-13.83,3.25Z"/><path class="cls-1" d="M589.65,707.61a64.69,64.69,0,0,0-20.82-3.25c-22,0-34.16,16.27-34.16,46.36,0,29.28,14.64,42.29,35,42.29,17.07,0,32.53-13,32.53-13l6.5,10.57S592.42,807.65,568,807.65c-32.54,0-52.06-19.52-52.06-56.12,0-37.41,21.15-61,54.5-61,17.89,0,36.6,8.14,36.6,8.14l-.82,27.65H594Z"/><path class="cls-1" d="M648,796.27,664.21,793V705.17H643.07L639,721.44H628.43V692.16h88.65v29.28H706.51l-4.07-16.27H681.29V793l16.27,3.26V806H648Z"/><path class="cls-1" d="M738.37,796.27,752.2,793V705.17l-13.83-3.25V693l44.73-.81v9.76l-13.83,3.25V793l13.83,3.26V806H738.37Z"/><path class="cls-1" d="M803.92,693l45.55-.81v9.76L834.67,705l25.53,79.06,27.17-78.9-15.13-3.25V693l43.92-.81v9.76l-12.69,3.25L867.36,806H851.09L816.45,705.17l-12.53-3.25Z"/><path class="cls-1" d="M1005.85,740.14v13H968.44V793h37.41l3.25-16.26h10.58V806H937.53v-9.76L951.36,793V705.17l-13.83-3.25V693l30.91-.81h49.61v27.65h-10.57l-4.07-14.64h-35v35Z"/><path class="cls-1" d="M101.67,931.6c0,30.09-10.58,48-44.74,48-31.72,0-43.1-15.46-43.1-45.55V877.11L0,873.85v-8.94l46.36-.82v9.76l-15.45,3.26V934c0,24.4,8.13,31.72,26.84,31.72,20.33,0,26.84-9,26.84-34.16V877.11l-15.46-3.26v-8.94l46.36-.82v9.76l-13.82,3.26Z"/><path class="cls-1" d="M182.72,968.2V978H138.8V968.2L152.62,965V877.11l-13.82-3.26v-8.94l34.16-.82L226.64,955V877.11l-13.83-3.26v-8.94l42.29-.82v9.76l-13.82,3.26V978H220.94l-53.68-89.63V965Z"/><path class="cls-1" d="M278.41,968.2,292.24,965V877.11l-13.83-3.26v-8.94l44.73-.82v9.76l-13.83,3.26V965l13.83,3.25V978H278.41Z"/><path class="cls-1" d="M344,864.91l45.55-.82v9.76l-14.81,3.09L400.24,956l27.17-78.89-15.13-3.26v-8.94l43.92-.82v9.76l-12.69,3.26L407.4,978H391.13L356.48,877.11,344,873.85Z"/><path class="cls-1" d="M545.89,912.08v13H508.48V965h37.41l3.25-16.27h10.58V978H477.57V968.2L491.4,965V877.11l-13.83-3.26v-8.94l30.91-.82h49.61v27.66H547.52l-4.07-14.64h-35v35Z"/><path class="cls-1" d="M598.17,877.11l-13.83-3.26v-8.94l30.91-.82h17.89c22.94,0,36.6,11.07,36.6,29.28,0,15.78-7.16,26.52-21.15,31.73,2.61,2.27,5.53,6.5,9.76,14.64L671.2,965.6l11.55,2.6V978h-24.4l-13.82-30.09c-7.65-16.27-11.23-19.52-22-19.52h-7.32V965l13.82,3.25V978H584.34V968.2L598.17,965Zm29.28,39c15.94,0,25.21-7.48,25.21-20.34,0-10.89-8.46-18.7-20.33-18.7H615.25v39Z"/><path class="cls-1" d="M721.87,961.69a40,40,0,0,0,17.89,4.07c11.88,0,24.89-5.85,24.89-17.4,0-25.05-58.72-14.64-58.72-53.52,0-22.78,18.22-32.37,38.55-32.37,15.45,0,34.32,6.5,34.32,6.5L778,896.63H767.42l-5.53-17.41a58.72,58.72,0,0,0-17.25-2.93c-14.64,0-21.63,7.65-21.63,15.78,0,24.73,58.56,15.29,58.56,51.89,0,24.4-19.68,35.63-42.46,35.63-17.08,0-33.51-6.51-33.51-6.51V944.62h13Z"/><path class="cls-1" d="M805.07,968.2,818.9,965V877.11l-13.83-3.26v-8.94l44.73-.82v9.76L836,877.11V965l13.83,3.25V978H805.07Z"/><path class="cls-1" d="M890.51,968.2,906.78,965V877.11H885.63l-4.06,16.26H871V864.09h88.66v29.28H949.07L945,877.11H923.86V965l16.27,3.25V978H890.51Z"/><path class="cls-1" d="M1020.63,935.83l-31.4-58.89-10.9-3.09v-8.94l40.67-.82v9.76l-11.06,3.26,21.63,45.55,23.91-45.55L1041,873.85v-8.94l39-.82v9.76l-10.09,2.93-32.2,58.73V965l13.82,3.25V978H1006.8V968.2l13.83-3.25Z"/><path class="cls-1" d="M345,124.9c0-9.69,6.87-21.56,15.28-26.39L524.62,4C533-.8,546.76-.8,555.16,4l164.4,94.48c8.4,4.83,15.27,16.7,15.27,26.39V313.74c0,9.69-6.87,21.56-15.27,26.39l-164.4,94.48c-8.4,4.83-22.14,4.83-30.54,0L360.23,340.13c-8.41-4.83-15.28-16.7-15.28-26.39Z"/><path class="cls-2" d="M423.59,286.36l15.15-6.06v-95l-15.15-6.07V162.11l61.62-1v18.18l-15.15,6.07v95l15.15,6.06v17.17H423.59Z"/><path class="cls-2" d="M558.22,249c0,23.24,6.66,32.33,26.46,32.33,21.42,0,26.06-11.52,26.06-35.36v-60.6L595,179.28V162.11l62.22-1v18.18l-15.15,6.07V246c0,39-14.95,60-58.39,60-40.6,0-56.77-18-56.77-57V185.35L512,179.28V162.11l62-1v18.18l-15.76,6.07Z"/><path class="cls-3" d="M599.42,522.93,634.35,511l3-1c19.23-6.56,38.2-28.24,42.15-48.17l.58-2.93c3.95-19.94,7.19-36.25,7.2-36.25l-34.95,11.92-2.92,1c-19.24,6.56-38.21,28.24-42.17,48.17l-.59,2.95C602.68,506.61,599.43,522.92,599.42,522.93Z"/><path class="cls-3" d="M584.88,558.46l32.26,17.95,2.43,1.35c17.75,9.88,46.53,9.4,63.94-1.08l2.59-1.56c17.41-10.48,31.67-19,31.68-19l-32.28-18-2.37-1.32c-17.76-9.89-46.53-9.4-64,1.07l-2.61,1.57C599.16,549.91,584.9,558.47,584.88,558.46Z"/><path class="cls-3" d="M679.18,498.63l26.6,12.84,2,1c14.64,7.07,37.6,5.34,51-3.83l2-1.37,24.41-16.68L758.6,477.71l-2-.95c-14.64-7.06-37.6-5.34-51,3.83l-2,1.37C690.19,491.14,679.2,498.64,679.18,498.63Z"/><path class="cls-3" d="M719.54,457.57l24.68-16.22,1.85-1.22C759.66,431.2,770,410.61,769,394.39l-.15-2.42c-1-16.23-1.77-29.51-1.77-29.51l-24.69,16.23-1.81,1.19c-13.59,8.93-23.91,29.51-22.93,45.74l.14,2.43C718.76,444.28,719.55,457.56,719.54,457.57Z"/><path class="cls-3" d="M768.25,443.55l23.26,4.17,1.75.31c12.8,2.29,30.12-4,38.48-13.94l1.25-1.48c8.36-10,15.21-18.11,15.22-18.11l-23.27-4.17-1.71-.3c-12.8-2.3-30.12,4-38.49,13.93l-1.25,1.49C775.12,435.41,768.26,443.55,768.25,443.55Z"/><path class="cls-3" d="M795.49,393.77,814,379.12l1.4-1.1c10.2-8.07,17-25.19,15.07-38l-.28-1.92c-1.92-12.86-3.48-23.39-3.48-23.4l-18.54,14.66-1.36,1.08c-10.2,8.07-17,25.19-15.08,38.06l.28,1.92C793.94,383.24,795.5,393.77,795.49,393.77Z"/><path class="cls-3" d="M480.58,522.93,445.65,511l-3-1c-19.23-6.56-38.2-28.24-42.15-48.17l-.58-2.93c-3.95-19.94-7.19-36.25-7.2-36.25l34.95,11.92,2.92,1c19.24,6.56,38.21,28.24,42.17,48.17l.59,2.95C477.32,506.61,480.57,522.92,480.58,522.93Z"/><path class="cls-3" d="M495.12,558.46l-32.26,17.95-2.43,1.35c-17.75,9.88-46.53,9.4-63.94-1.08l-2.59-1.56c-17.41-10.48-31.67-19-31.68-19l32.28-18,2.37-1.32c17.76-9.89,46.53-9.4,63.95,1.07l2.61,1.57C480.84,549.91,495.1,558.47,495.12,558.46Z"/><path class="cls-3" d="M400.82,498.63l-26.6,12.84-2,1c-14.64,7.07-37.6,5.34-51-3.83l-2-1.37-24.41-16.68,26.61-12.84,2-.95c14.64-7.06,37.6-5.34,51,3.83l2,1.37C389.81,491.14,400.8,498.64,400.82,498.63Z"/><path class="cls-3" d="M360.46,457.57l-24.68-16.22-1.85-1.22C320.34,431.2,310,410.61,311,394.39l.15-2.42c1-16.23,1.77-29.51,1.77-29.51l24.69,16.23,1.81,1.19c13.59,8.93,23.91,29.51,22.93,45.74l-.14,2.43C361.24,444.28,360.45,457.56,360.46,457.57Z"/><path class="cls-3" d="M311.75,443.55l-23.26,4.17-1.75.31c-12.8,2.29-30.12-4-38.48-13.94L247,432.61c-8.36-10-15.21-18.11-15.22-18.11l23.27-4.17,1.71-.3c12.8-2.3,30.12,4,38.49,13.93l1.25,1.49C304.88,435.41,311.74,443.55,311.75,443.55Z"/><path class="cls-3" d="M284.51,393.77,266,379.12l-1.4-1.1c-10.2-8.07-17-25.19-15.07-38l.28-1.92c1.92-12.86,3.48-23.39,3.48-23.4l18.54,14.66,1.36,1.08c10.2,8.07,17,25.19,15.08,38.06l-.28,1.92C286.06,383.24,284.5,393.77,284.51,393.77Z"/><path class="cls-3" d="M569.34,507.56a10.29,10.29,0,0,0-4.66-8l-20-11.51a10.36,10.36,0,0,0-9.3,0l-20,11.51a10.29,10.29,0,0,0-4.66,8v23a10.29,10.29,0,0,0,4.66,8l20,11.52a10.36,10.36,0,0,0,9.3,0l20-11.52a10.29,10.29,0,0,0,4.66-8Z"/></svg>