<svg id="Layer_1" data-name="Layer 1" xmlns="http://www.w3.org/2000/svg" viewBox="0 0 1080 1080"><defs><style>.cls-1{fill:#8dc63f;}.cls-2{fill:#fff;}</style></defs><path class="cls-1" d="M987.17,540q0-21.74-2-43L1080,433.34a543.46,543.46,0,0,0-18.9-71l-114-7.72A452.08,452.08,0,0,0,904,280.16l50.21-102.31a552.5,552.5,0,0,0-52-52.08L799.8,176a446.4,446.4,0,0,0-74.54-43.11l-7.72-114A543.24,543.24,0,0,0,646.63,0L583,94.85c-14.15-1.35-28.54-2-43-2s-28.84.69-43,2L433.38,0a538.29,538.29,0,0,0-71.06,19l-7.7,113.92A445.69,445.69,0,0,0,280.07,176L177.75,125.77a550,550,0,0,0-52,52.08l50.34,102.31a448.6,448.6,0,0,0-43.12,74.49l-114,7.72A541.91,541.91,0,0,0,0,433.34l94.88,63.58c-1.35,14.14-2.14,28.53-2.14,43.07s.79,28.83,2.14,43L0,646.59a543.07,543.07,0,0,0,18.91,71l114,7.66a445.27,445.27,0,0,0,43.12,74.39L125.72,902.06a555.08,555.08,0,0,0,52.13,52.12L280.23,903.9A449.16,449.16,0,0,0,354.62,947l7.7,114a545.26,545.26,0,0,0,71,19L497,985c14.19,1.35,28.46,2.19,43,2.19s28.91-.84,43.07-2.19l63.7,94.9A547.92,547.92,0,0,0,717.54,1061l7.72-114A451.77,451.77,0,0,0,799.8,903.9l102.35,50.28a552,552,0,0,0,52-52L904,799.84a449.38,449.38,0,0,0,43.11-74.54L1061,717.64a547.05,547.05,0,0,0,19-71L985.12,583C986.48,568.82,987.17,554.53,987.17,540ZM540,876.26c-185.73,0-336.28-150.53-336.28-336.25S354.27,203.76,540,203.76,876.28,354.3,876.28,540,725.73,876.26,540,876.26Z"/><path class="cls-2" d="M752.39,539.91C752.39,512.18,633.28,333,633.28,333c-9.46-16.28-39.84-16.28-67.82-.05s-43,42.64-33.54,58.93l13.26,22.82,37,64.08H405.18l-64.32,0c-18.86,0-34.13,27.41-34.19,61.22v.12c.06,33.81,15.33,61.24,34.19,61.22l64.32,0h177l-37,64.08-13.26,22.83c-9.47,16.3,5.54,42.69,33.54,59s58.36,16.2,67.82-.08c0,0,119.11-179.19,119.11-206.92a.24.24,0,0,0,0-.08A.58.58,0,0,0,752.39,539.91Z"/></svg>