<svg id="Layer_1" data-name="Layer 1" xmlns="http://www.w3.org/2000/svg" viewBox="0 0 1080 572"><defs><style>.cls-1{fill:#003f69;}.cls-2{fill:#f7901e;}.cls-3{fill:#fff;}</style></defs><path class="cls-1" d="M582.19,448.24H541.14v26.08H581v14.82H541.14v32.41h41.05v14.82H525.4V433.42h56.79Z"/><path class="cls-1" d="M612.92,501.17l-23.16-29.78h17.91l14.35,19,14.51-19h18.52l-23.92,29.78,27.78,35.2H640.7L622,512.13l-19.29,24.24H584.21Z"/><path class="cls-1" d="M712.63,491.3c-7-6.79-13.74-8-18.37-8A19.44,19.44,0,0,0,679.91,489c-2.78,2.78-5.56,7.72-5.56,15,0,7.57,2.93,12.66,5.86,15.59A19.67,19.67,0,0,0,694,524.79a25.35,25.35,0,0,0,18.68-8.33v16.82c-3.71,2.31-9.73,5.09-19.76,5.09-10.8,0-18.52-3.09-24.69-9.57-4.63-4.78-9.26-12.5-9.26-24.38,0-12.19,5.09-20.37,9.87-25.16,5.1-5.09,13.28-9.57,26.09-9.57a34.9,34.9,0,0,1,17.75,4.63Z"/><path class="cls-1" d="M723.28,423.85h15.13v53.09a23.37,23.37,0,0,1,17.44-7.25c11.88,0,17.29,6.18,19.14,8.8,4,5.86,4.16,13.43,4.16,18.06v39.82H764V497.93c0-3.86,0-8-2.93-11.26a11.42,11.42,0,0,0-8.49-3.4,13.38,13.38,0,0,0-11.11,5.41c-2.17,3.08-3.09,8-3.09,16.35v31.34H723.28Z"/><path class="cls-1" d="M842,471.39H857.1v65H842v-6.8a25,25,0,0,1-19.45,8.8c-20.06,0-31.48-16.67-31.48-34.57,0-21.15,14.5-34.11,31.64-34.11A23.71,23.71,0,0,1,842,479Zm-35.5,32.72c0,11.27,7.1,20.68,18.06,20.68,9.57,0,18.37-6.95,18.37-20.53,0-14.2-8.8-21-18.37-21C813.58,483.27,806.48,492.53,806.48,504.11Z"/><path class="cls-1" d="M872.24,471.39h15.13v6A22.36,22.36,0,0,1,905,469.69c12,0,17.13,6,19.14,8.8,2.47,3.55,4,8,4,18.06v39.82H913V500.25c0-16.51-6.18-17-11.89-17-6.79,0-13.73.93-13.73,21.92v31.18H872.24Z"/><path class="cls-1" d="M990.93,471.39h15.13v59.73c0,15.28-1.7,26.23-10.65,33.8-4.17,3.39-11,6.94-21.6,6.94-7.57,0-15.13-1.85-21.3-8-4.79-4.79-8.49-12.35-9.57-20.22H957.6a21.52,21.52,0,0,0,4.78,10.18c1.86,2,5.56,4.48,11.74,4.48s10-2.47,11.88-4.32c4.93-4.79,4.93-11.58,4.93-16.36v-8.49c-6.94,8.8-15.43,9.26-19.75,9.26-8.33,0-15.28-2.31-21.45-8.8-5.87-6.17-9.73-15-9.73-25.77,0-11.88,4.48-20.06,9.57-25.16,6.48-6.63,14.2-8.95,22.07-8.95a24.41,24.41,0,0,1,19.29,8.8Zm-28.85,16.2c-3.86,3.55-6.64,9.57-6.64,16.52,0,6.48,2.47,12.81,6.48,16.36a17.71,17.71,0,0,0,11.58,4.32,16.45,16.45,0,0,0,12.65-5.25,21.57,21.57,0,0,0,5.71-15.28c0-7.25-2.31-12.65-6.17-16.36-3.7-3.7-7.87-4.63-12.19-4.63A15.64,15.64,0,0,0,962.08,487.59Z"/><path class="cls-1" d="M1079.54,521.55a34.1,34.1,0,0,1-11,11.88c-5.25,3.4-12.2,4.94-19.14,4.94-8.65,0-15.74-2.16-21.92-8.33s-9.57-15.13-9.57-24.85c0-10,3.55-19.76,10.35-26.7a29.59,29.59,0,0,1,21.76-8.8c10.34,0,17,4.48,20.83,8.49,8.34,8.64,9.11,20.68,9.11,27.47v1.85h-46.61c.31,4.63,2.31,9.88,5.56,13.12,3.54,3.55,7.87,4.17,11.57,4.17a16,16,0,0,0,10.34-3.24,23.43,23.43,0,0,0,6-7.1Zm-15-26.39a15.69,15.69,0,0,0-4.62-8.8,15.76,15.76,0,0,0-20.84.46,17.06,17.06,0,0,0-4.63,8.34Z"/><g id="Ignition_Logotype_-_Sans_IA_-_Default" data-name="Ignition Logotype - Sans IA - Default"><path class="cls-1" d="M15.51,433.6V536.36H0V433.6Z"/><path class="cls-1" d="M92.54,534.83c0,3.07-.12,5.76-.31,8.09a57.23,57.23,0,0,1-.83,6.15,27.22,27.22,0,0,1-6.26,12.58C79.3,568.41,71.23,571.77,61,571.77q-13,0-21.37-7-8.65-7.21-10-19.93h15a17,17,0,0,0,2.86,7.38q4.66,6.06,13.58,6.06,16.44,0,16.44-20.1v-9q-8.93,9.12-20.57,9.12a27.65,27.65,0,0,1-21.7-9.59q-8.5-9.71-8.51-24.29,0-14.18,7.92-24.08,8.52-10.54,22.49-10.53a26.1,26.1,0,0,1,20.37,9.12v-7.32h15ZM78.16,504.12c0-6.29-1.69-11.33-5.06-15.08A16.68,16.68,0,0,0,60,483.25a16.18,16.18,0,0,0-13.46,6.31c-3,3.77-4.46,8.65-4.46,14.62s1.5,10.72,4.46,14.49q4.86,6.2,13.46,6.18t13.57-6.25Q78.15,513,78.16,504.12Z"/><path class="cls-1" d="M107.33,471.54h15v6q7.86-7.8,17.71-7.79,11.32,0,17.64,7.12,5.46,6.06,5.46,19.77v39.73h-15V500.2c0-6.37-.9-10.79-2.67-13.23s-4.88-3.72-9.44-3.72q-7.47,0-10.59,4.92t-3.07,16.95v31.24h-15Z"/><path class="cls-1" d="M175.74,444.58a9.26,9.26,0,0,1,2.85-6.78,9.73,9.73,0,0,1,13.78,0,9.15,9.15,0,0,1,2.87,6.85,9.38,9.38,0,0,1-2.87,6.92,9.19,9.19,0,0,1-6.85,2.87,9.77,9.77,0,0,1-9.78-9.86Zm17.23,27v64.82H178V471.54Z"/><path class="cls-1" d="M226,485.51v50.85H211V485.51h-6.39v-14H211V447.78h15v23.76h11.64v14Z"/><path class="cls-1" d="M244.22,444.58a9.2,9.2,0,0,1,2.87-6.78,9.31,9.31,0,0,1,6.85-2.86,9.41,9.41,0,0,1,6.92,2.86,9.19,9.19,0,0,1,2.87,6.85,9.42,9.42,0,0,1-2.87,6.92,9.2,9.2,0,0,1-6.85,2.87,9.8,9.8,0,0,1-9.79-9.86Zm17.24,27v64.82h-15V471.54Z"/><path class="cls-1" d="M273.28,503.49a32.2,32.2,0,0,1,10.05-23.89,35.44,35.44,0,0,1,49.12.06,34.69,34.69,0,0,1-.06,48.78,34.41,34.41,0,0,1-24.83,9.79q-14.58,0-24.43-10T273.28,503.49Zm15.31.27c0,6.46,1.73,11.6,5.19,15.37s8.23,5.72,14.05,5.72,10.54-1.88,14-5.66,5.26-8.8,5.26-15.11-1.76-11.34-5.26-15.1-8.24-5.73-14-5.73-10.37,1.91-13.92,5.73S288.59,497.72,288.59,503.76Z"/><path class="cls-1" d="M401.48,479.74c-2.21-3-4.17-5.71-6-8.27a27.08,27.08,0,0,0-9.89-1.73q-9.87,0-17.71,7.79v-6h-15v64.82h15V505.12q0-12.09,3.06-16.95c2.09-3.28,5.63-4.92,10.59-4.92,4.57,0,7.71,1.25,9.45,3.72s2.65,6.86,2.65,13.23v36.16h15.05V496.63a51.27,51.27,0,0,0-.58-8C405.69,485.44,403.44,482.4,401.48,479.74Z"/><path class="cls-2" d="M556.05,347.26a19.69,19.69,0,0,0-20.13-11.4c-4.2.49-7.81,3.39-10.83,8.74q-.84,1.47-4.34,9.07l-8.94,19.2q-5.38,11.6-12.23,26.12t-14.16,30.52l-14.78,32.31q-7.31,16-13.91,30.35a29.68,29.68,0,0,1,6,3.46q13.55-19.85,28.94-42.25,15.59-22.68,29-42.49t22.77-33.64q9.42-13.85,10.74-16.22C557.14,355.69,557.79,351.12,556.05,347.26Z"/><path class="cls-2" d="M431.69,492.43c-2.84-11.37-5.18-20.52-7-27.46s-3.35-12.57-4.53-16.66-2.11-7.07-2.8-9-1.36-3.54-2-4.88a11.38,11.38,0,0,0-6.76-6.29,14.19,14.19,0,0,0-16.3,7.8,11.37,11.37,0,0,0,.61,9.21q1,2,2.55,4.62c1.05,1.73,2.78,4.36,5.23,7.84s5.8,8.14,10.1,13.95,10,13.45,17.19,22.93A31.47,31.47,0,0,1,431.69,492.43Z"/><path class="cls-2" d="M463.37,520.5a18.9,18.9,0,1,1-18.89-18.9A18.9,18.9,0,0,1,463.37,520.5Z"/></g><path class="cls-2" d="M665.22,12l23.44,23.43a40.63,40.63,0,0,1,0,57.45l-63.74,63.74a4,4,0,0,0,0,5.74l63.74,63.74a40.62,40.62,0,0,1,0,57.44L665.22,307a40.63,40.63,0,0,1-57.45,0L489,188.25a40.63,40.63,0,0,1,0-57.45L607.77,12A40.61,40.61,0,0,1,665.22,12Z"/><path class="cls-3" d="M649.28,51.41a19,19,0,0,0-26.79,0l-54.28,54.28,25.11,25.11c.57.57,1.07,1.18,1.59,1.77L649.28,78.2A19,19,0,0,0,649.28,51.41Z"/><path class="cls-3" d="M649.28,240.85l-54.37-54.36c-.52.59-1,1.2-1.59,1.76l-25.11,25.11,54.28,54.28a18.94,18.94,0,1,0,26.79-26.79Z"/><path class="cls-1" d="M593.32,130.8,474.55,12a40.6,40.6,0,0,0-57.44,0L393.67,35.47a40.63,40.63,0,0,0,0,57.45l63.74,63.74a4.07,4.07,0,0,1,0,5.74l-63.74,63.74a40.62,40.62,0,0,0,0,57.44L417.11,307a40.62,40.62,0,0,0,57.44,0L593.32,188.25A40.63,40.63,0,0,0,593.32,130.8Z"/><path class="cls-3" d="M433.05,267.64h0a18.93,18.93,0,0,1,0-26.78L509.91,164a6.31,6.31,0,0,0,0-8.93L433.05,78.2a18.94,18.94,0,0,1,0-26.79h0a19,19,0,0,1,26.79,0L559,150.6a12.63,12.63,0,0,1,0,17.86l-99.18,99.18A18.94,18.94,0,0,1,433.05,267.64Z"/></svg>