<?xml version="1.0" encoding="utf-8"?>
<!-- Generator: Adobe Illustrator 26.5.0, SVG Export Plug-In . SVG Version: 6.00 Build 0)  -->
<svg version="1.1" id="Layer_1" xmlns="http://www.w3.org/2000/svg" xmlns:xlink="http://www.w3.org/1999/xlink" x="0px" y="0px"
	 viewBox="0 0 200 200" style="enable-background:new 0 0 200 200;" xml:space="preserve">
<style type="text/css">
	.st0{fill:none;stroke:#F68F1E;stroke-width:6;stroke-linecap:round;stroke-linejoin:round;stroke-miterlimit:10;}
	.st1{fill:none;stroke:#F68F1E;stroke-width:6;stroke-miterlimit:10;}
	.st2{fill:none;stroke:#F68F1E;stroke-width:5;stroke-linecap:round;stroke-linejoin:round;stroke-miterlimit:10;}
	.st3{fill:#F68F1E;stroke:#B96A2D;stroke-width:6;stroke-linecap:round;stroke-linejoin:round;stroke-miterlimit:10;}
	.st4{fill:#F68F1E;stroke:#B96A2D;stroke-width:6;stroke-miterlimit:10;}
	.st5{fill:#FFFFFF;stroke:#B96A2D;stroke-width:6;stroke-miterlimit:10;}
	.st6{fill:#FFFFFF;stroke:#9A9A9A;stroke-width:6;stroke-linecap:round;stroke-linejoin:round;stroke-miterlimit:10;}
	.st7{fill:none;stroke:#9A9A9A;stroke-width:6;stroke-linecap:round;stroke-linejoin:round;stroke-miterlimit:10;}
	.st8{fill:#FFFFFF;stroke:#B96A2D;stroke-width:5;stroke-linecap:round;stroke-linejoin:round;stroke-miterlimit:10;}
	.st9{clip-path:url(#SVGID_00000005971212555023047820000001984792352839518632_);}
	.st10{clip-path:url(#SVGID_00000018195877919901384440000004126162769851177345_);}
	.st11{clip-path:url(#SVGID_00000008123279626180066850000014822392890106716305_);}
	.st12{clip-path:url(#SVGID_00000142139258593280916330000015323332601553808797_);}
	.st13{fill:#FFFFFF;stroke:#B96A2D;stroke-width:6;stroke-linecap:round;stroke-linejoin:round;stroke-miterlimit:10;}
	.st14{fill:none;stroke:#B96A2D;stroke-width:6;stroke-linecap:round;stroke-linejoin:round;stroke-miterlimit:10;}
	.st15{clip-path:url(#SVGID_00000042708593827254861060000000580433171185576361_);}
	.st16{clip-path:url(#SVGID_00000021094340253206792520000007759491895568699315_);}
	.st17{clip-path:url(#SVGID_00000074412251950381291420000002011051617941974927_);}
	.st18{clip-path:url(#SVGID_00000007408975584795658190000011057879866761364909_);}
	.st19{clip-path:url(#SVGID_00000030455759375365469290000006919725821866856358_);}
	.st20{fill:#FFFFFF;stroke:#9A9A9A;stroke-width:6;stroke-miterlimit:10;}
	.st21{fill:none;stroke:#B96A2D;stroke-width:6;stroke-linecap:round;stroke-miterlimit:10;}
	.st22{fill:#FFFFFF;stroke:#F68F1E;stroke-width:6;stroke-linecap:round;stroke-linejoin:round;stroke-miterlimit:10;}
	
		.st23{fill:none;stroke:#F68F1E;stroke-width:7;stroke-linecap:round;stroke-linejoin:round;stroke-miterlimit:10;stroke-dasharray:0,10;}
	.st24{fill:none;stroke:#F58E1E;stroke-width:6;stroke-linecap:round;stroke-linejoin:round;stroke-miterlimit:10;}
	.st25{fill:#FFFFFF;}
	.st26{fill:#9A9A9A;}
	.st27{fill:none;stroke:#B96A2D;stroke-width:6;stroke-miterlimit:10;}
	.st28{fill:none;stroke:#9A9A9A;stroke-width:7;stroke-linecap:round;stroke-linejoin:round;}
	.st29{fill:none;stroke:#9A9A9A;stroke-width:7;stroke-linecap:round;stroke-linejoin:round;stroke-dasharray:0,10.0003;}
	.st30{fill:none;stroke:#FF00FF;stroke-width:6;stroke-miterlimit:10;}
</style>
<path class="st6" d="M173.8,189.9H58.8c-9,0-16.4-7.3-16.4-16.4V58.5c0-9,7.3-16.4,16.4-16.4h115.1c9,0,16.4,7.3,16.4,16.4v115.1
	C190.2,182.6,182.9,189.9,173.8,189.9z"/>
<path class="st6" d="M159,175H42.8c-9,0-16.4-7.3-16.4-16.4V41.3c0-9,7.3-16.4,16.4-16.4H159c9,0,16.4,7.3,16.4,16.4v117.4
	C175.4,167.7,168.1,175,159,175z"/>
<path class="st3" d="M143.5,158.8H26.2c-9,0-16.4-7.3-16.4-16.4V25.1c0-9,7.3-16.4,16.4-16.4h117.4c9,0,16.4,7.3,16.4,16.4v117.4
	C159.9,151.5,152.6,158.8,143.5,158.8z"/>
<g>
	<polygon class="st5" points="46.1,61.4 46.1,106.1 84.9,128.5 123.6,106.1 123.6,61.4 84.9,39 	"/>
	<polyline class="st27" points="46.1,61.4 84.9,83.8 123.6,61.4 	"/>
	<line class="st5" x1="84.9" y1="128.5" x2="84.9" y2="83.8"/>
</g>
</svg>
