<?xml version="1.0" encoding="utf-8"?>
<!-- Generator: Adobe Illustrator 26.5.0, SVG Export Plug-In . SVG Version: 6.00 Build 0)  -->
<svg version="1.1" id="Layer_1" xmlns="http://www.w3.org/2000/svg" xmlns:xlink="http://www.w3.org/1999/xlink" x="0px" y="0px"
	 viewBox="0 0 200 200" style="enable-background:new 0 0 200 200;" xml:space="preserve">
<style type="text/css">
	.st0{fill:none;stroke:#F68F1E;stroke-width:6;stroke-linecap:round;stroke-linejoin:round;stroke-miterlimit:10;}
	.st1{fill:none;stroke:#F68F1E;stroke-width:6;stroke-miterlimit:10;}
	.st2{fill:none;stroke:#F68F1E;stroke-width:5;stroke-linecap:round;stroke-linejoin:round;stroke-miterlimit:10;}
	.st3{fill:#F68F1E;stroke:#B96A2D;stroke-width:6;stroke-linecap:round;stroke-linejoin:round;stroke-miterlimit:10;}
	.st4{fill:#F68F1E;stroke:#B96A2D;stroke-width:6;stroke-miterlimit:10;}
	.st5{fill:#FFFFFF;stroke:#B96A2D;stroke-width:6;stroke-miterlimit:10;}
	.st6{fill:#FFFFFF;stroke:#9A9A9A;stroke-width:6;stroke-linecap:round;stroke-linejoin:round;stroke-miterlimit:10;}
	.st7{fill:none;stroke:#9A9A9A;stroke-width:6;stroke-linecap:round;stroke-linejoin:round;stroke-miterlimit:10;}
	.st8{fill:#FFFFFF;stroke:#B96A2D;stroke-width:5;stroke-linecap:round;stroke-linejoin:round;stroke-miterlimit:10;}
	.st9{clip-path:url(#SVGID_00000060026333336134826660000003721603161331977604_);}
	.st10{clip-path:url(#SVGID_00000125599163908177274040000015606567575576439687_);}
	.st11{clip-path:url(#SVGID_00000175286981773556462460000005952340846566684303_);}
	.st12{clip-path:url(#SVGID_00000077297328051512903710000001967453309011764919_);}
	.st13{fill:#FFFFFF;stroke:#B96A2D;stroke-width:6;stroke-linecap:round;stroke-linejoin:round;stroke-miterlimit:10;}
	.st14{fill:none;stroke:#B96A2D;stroke-width:6;stroke-linecap:round;stroke-linejoin:round;stroke-miterlimit:10;}
	.st15{clip-path:url(#SVGID_00000026872716135881508730000000890171647336397456_);}
	.st16{clip-path:url(#SVGID_00000145748746595855909180000010556758333378924989_);}
	.st17{clip-path:url(#SVGID_00000140705137618606961480000017035373291684845744_);}
	.st18{clip-path:url(#SVGID_00000127754091587794445470000005486581205749219972_);}
	.st19{clip-path:url(#SVGID_00000172424296017804260930000003314371170380462007_);}
	.st20{fill:#FFFFFF;stroke:#9A9A9A;stroke-width:6;stroke-miterlimit:10;}
	.st21{fill:none;stroke:#B96A2D;stroke-width:6;stroke-linecap:round;stroke-miterlimit:10;}
	.st22{fill:#FFFFFF;stroke:#F68F1E;stroke-width:6;stroke-linecap:round;stroke-linejoin:round;stroke-miterlimit:10;}
	
		.st23{fill:none;stroke:#F68F1E;stroke-width:7;stroke-linecap:round;stroke-linejoin:round;stroke-miterlimit:10;stroke-dasharray:0,10;}
	.st24{fill:none;stroke:#F58E1E;stroke-width:6;stroke-linecap:round;stroke-linejoin:round;stroke-miterlimit:10;}
	.st25{fill:#FFFFFF;}
	.st26{fill:#9A9A9A;}
	.st27{fill:none;stroke:#B96A2D;stroke-width:6;stroke-miterlimit:10;}
	.st28{fill:none;stroke:#9A9A9A;stroke-width:7;stroke-linecap:round;stroke-linejoin:round;}
	.st29{fill:none;stroke:#9A9A9A;stroke-width:7;stroke-linecap:round;stroke-linejoin:round;stroke-dasharray:0,10.0003;}
	.st30{fill:none;stroke:#FF00FF;stroke-width:6;stroke-miterlimit:10;}
</style>
<g>
	<path class="st6" d="M184.6,69.8l-86.3,0c-3.8,0-7,3.3-7,7.4l0,89.4c0,4.1,3.1,7.4,7,7.4l53.4,0l19.8,13.1v-13.1l13.1,0
		c3.8,0,7-3.3,7-7.4l0-89.4C191.5,73.1,188.4,69.8,184.6,69.8z"/>
	<line class="st24" x1="117.7" y1="116.3" x2="116" y2="116.3"/>
	<path class="st3" d="M18.5,14.8l138.3,0c5.5,0,10,4.5,10,10l0,115.8c0,5.5-4.5,10-10,10l-76.7,0L51.6,168l0-17.6l-33.2,0
		c-5.5,0-10-4.5-10-10l0-115.8C8.5,19.2,12.9,14.8,18.5,14.8z"/>
	<g>
		<path class="st25" d="M126.9,46.3c-0.7-1.5-1.8-2.7-3.2-3.5c-1.5-0.8-3.1-1.2-4.7-1c-1.7,0.2-3.1,1.3-4.3,3.4
			c-0.2,0.4-0.8,1.6-1.7,3.6c-0.9,2-2.1,4.5-3.5,7.6c-1.4,3.1-3,6.5-4.8,10.3c-1.8,3.8-3.7,7.8-5.6,12c-1.9,4.2-3.9,8.5-5.8,12.8
			c-1.9,4.2-3.8,8.2-5.5,12c0.8,0.4,1.6,0.8,2.4,1.4c3.6-5.2,7.4-10.8,11.4-16.7c4.1-6,7.9-11.6,11.4-16.8c3.5-5.2,6.5-9.6,9-13.3
			c2.5-3.6,3.9-5.8,4.2-6.4C127.3,49.6,127.6,47.8,126.9,46.3z"/>
		<path class="st25" d="M77.8,103.5c-1.1-4.5-2-8.1-2.7-10.8c-0.7-2.8-1.3-5-1.8-6.6c-0.5-1.6-0.8-2.8-1.1-3.5
			c-0.3-0.8-0.5-1.4-0.8-1.9c-0.6-1.3-1.5-2.1-2.7-2.5c-1.2-0.4-2.4-0.3-3.8,0.4c-1.3,0.6-2.2,1.5-2.7,2.7c-0.4,1.2-0.4,2.4,0.2,3.6
			c0.3,0.5,0.6,1.1,1,1.8c0.4,0.7,1.1,1.7,2.1,3.1c1,1.4,2.3,3.2,4,5.5c1.7,2.3,4,5.3,6.8,9C76.9,104,77.4,103.8,77.8,103.5z"/>
		<path class="st25" d="M90.3,114.6c0,4.1-3.3,7.5-7.5,7.5c-4.1,0-7.5-3.3-7.5-7.5c0-4.1,3.3-7.5,7.5-7.5
			C87,107.2,90.3,110.5,90.3,114.6z"/>
	</g>
</g>
</svg>
