<?xml version="1.0" encoding="utf-8"?>
<!-- Generator: Adobe Illustrator 26.5.0, SVG Export Plug-In . SVG Version: 6.00 Build 0)  -->
<svg version="1.1" id="Layer_1" xmlns="http://www.w3.org/2000/svg" xmlns:xlink="http://www.w3.org/1999/xlink" x="0px" y="0px"
	 viewBox="0 0 200 200" style="enable-background:new 0 0 200 200;" xml:space="preserve">
<style type="text/css">
	.st0{fill:none;stroke:#F68F1E;stroke-width:6;stroke-linecap:round;stroke-linejoin:round;stroke-miterlimit:10;}
	.st1{fill:none;stroke:#F68F1E;stroke-width:6;stroke-miterlimit:10;}
	.st2{fill:none;stroke:#F68F1E;stroke-width:5;stroke-linecap:round;stroke-linejoin:round;stroke-miterlimit:10;}
	.st3{fill:#F68F1E;stroke:#B96A2D;stroke-width:6;stroke-linecap:round;stroke-linejoin:round;stroke-miterlimit:10;}
	.st4{fill:#F68F1E;stroke:#B96A2D;stroke-width:6;stroke-miterlimit:10;}
	.st5{fill:#FFFFFF;stroke:#B96A2D;stroke-width:6;stroke-miterlimit:10;}
	.st6{fill:#FFFFFF;stroke:#9A9A9A;stroke-width:6;stroke-linecap:round;stroke-linejoin:round;stroke-miterlimit:10;}
	.st7{fill:none;stroke:#9A9A9A;stroke-width:6;stroke-linecap:round;stroke-linejoin:round;stroke-miterlimit:10;}
	.st8{fill:#FFFFFF;stroke:#B96A2D;stroke-width:5;stroke-linecap:round;stroke-linejoin:round;stroke-miterlimit:10;}
	.st9{clip-path:url(#SVGID_00000043425152396893670230000004850697128240714905_);}
	.st10{clip-path:url(#SVGID_00000032636022374141921520000010459797150083083916_);}
	.st11{clip-path:url(#SVGID_00000121977462855192317070000000223656245975836583_);}
	.st12{clip-path:url(#SVGID_00000039116611272040499310000013914811727514645639_);}
	.st13{fill:#FFFFFF;stroke:#B96A2D;stroke-width:6;stroke-linecap:round;stroke-linejoin:round;stroke-miterlimit:10;}
	.st14{fill:none;stroke:#B96A2D;stroke-width:6;stroke-linecap:round;stroke-linejoin:round;stroke-miterlimit:10;}
	.st15{clip-path:url(#SVGID_00000065775699708535803610000014718364462876945837_);}
	.st16{clip-path:url(#SVGID_00000008832701253467803380000011673736754016099471_);}
	.st17{clip-path:url(#SVGID_00000034797216446709401730000007767798790806586006_);}
	.st18{clip-path:url(#SVGID_00000039819823892857580620000002255959900733208744_);}
	.st19{clip-path:url(#SVGID_00000022547263853384321610000013085987592304200880_);}
	.st20{fill:#FFFFFF;stroke:#9A9A9A;stroke-width:6;stroke-miterlimit:10;}
	.st21{fill:none;stroke:#B96A2D;stroke-width:6;stroke-linecap:round;stroke-miterlimit:10;}
	.st22{fill:#FFFFFF;stroke:#F68F1E;stroke-width:6;stroke-linecap:round;stroke-linejoin:round;stroke-miterlimit:10;}
	
		.st23{fill:none;stroke:#F68F1E;stroke-width:7;stroke-linecap:round;stroke-linejoin:round;stroke-miterlimit:10;stroke-dasharray:0,10;}
	.st24{fill:none;stroke:#F58E1E;stroke-width:6;stroke-linecap:round;stroke-linejoin:round;stroke-miterlimit:10;}
	.st25{fill:#FFFFFF;}
	.st26{fill:#9A9A9A;}
	.st27{fill:none;stroke:#B96A2D;stroke-width:6;stroke-miterlimit:10;}
	.st28{fill:none;stroke:#9A9A9A;stroke-width:7;stroke-linecap:round;stroke-linejoin:round;}
	.st29{fill:none;stroke:#9A9A9A;stroke-width:7;stroke-linecap:round;stroke-linejoin:round;stroke-dasharray:0,10.0003;}
	.st30{fill:none;stroke:#FF00FF;stroke-width:6;stroke-miterlimit:10;}
</style>
<g>
	<rect x="43.5" y="8.5" class="st3" width="136.5" height="168.7"/>
	<path class="st4" d="M43.5,172.9L20,174.4l0-142.4C20,19,30.5,8.5,43.4,8.5h0.1L43.5,172.9z"/>
	<polygon class="st5" points="79.7,52.8 79.7,89.8 111.8,108.4 143.8,89.8 143.8,52.8 111.8,34.3 	"/>
	<path class="st5" d="M149.8,146.2l-76,0c-4.4,0-8-3.6-8-8v0c0-4.4,3.6-8,8-8l76,0c4.4,0,8,3.6,8,8v0
		C157.7,142.7,154.2,146.2,149.8,146.2z"/>
	<path class="st6" d="M170.9,191.5l-139.1,0c-6.5,0-11.8-5.3-11.8-11.8v-1.4c0-6.5,5.3-11.8,11.8-11.8l148.2,0v15.8
		C180,187.4,175.9,191.5,170.9,191.5z"/>
	<line class="st7" x1="46.2" y1="179.1" x2="163.6" y2="179.1"/>
	<polyline class="st5" points="79.7,52.8 111.8,71.3 143.8,52.8 	"/>
	<line class="st5" x1="111.8" y1="108.4" x2="111.8" y2="71.3"/>
</g>
</svg>
